<svg id="wwf" xmlns="http://www.w3.org/2000/svg" viewBox="0 0 24 24"><title>wwf</title><rect x="1" y="1" width="22" height="22" style="fill:#fff"/><path d="M15.12,10.7c0.51,0.57.57,2.27,1.85,1.6,0.77-.41.76-2.12-0.27-2.74-0.83-.49-1.29.17-1.59,1a0.15,0.15,0,0,0,0,.16h0Z" style="fill:#404c4e"/><path d="M13.12,10.43c-0.54.45-.91,1.66-1.89,1.25-0.8-.41-0.87-2,0.5-2.72,1-.44,1.44.43,1.45,1.36a0.2,0.2,0,0,1-.06.11h0Z" style="fill:#404c4e"/><path d="M14.45,13.54c0.53-.05.41-0.55,0-0.67a4.86,4.86,0,0,0-1.29-.17c-0.68,0-.66.54-0.31,0.62a1.11,1.11,0,0,1,.67.42c0.21,0.41.12-.12,0.92-0.21h0Z" style="fill:#404c4e"/><path d="M16.95,4.74a1.5,1.5,0,0,1,2.4-.34,1.52,1.52,0,0,1,.5,1.78c-0.33.65-1.19,1.45-1.74,0.68a3.16,3.16,0,0,0-1-.86c-0.44-.18-0.52-0.58-0.11-1.26h0Z" style="fill:#404c4e"/><path d="M19.6,9.63c-0.06-.2-0.16-0.19-0.15,0,0.05,2-1.15,4.18-3.73,4.2-0.66,0-.46,1.06-1.67.53-0.87-.59-1.37.57-2-0.67a0.81,0.81,0,0,0-.6-0.57c-2.55-.63-3.36-4.14-1.12-7A0.7,0.7,0,0,0,11.43,6a3.33,3.33,0,0,1,.89-0.56C12.85,5.22,13.15,5,12.68,4a1.45,1.45,0,0,0-2.39-.5A1.53,1.53,0,0,0,10,5.82a5.45,5.45,0,0,0-2.62,5.08c0.05,1.75-.39,1.6.16,3.38,0,0.16-.06.15-0.14,0.1a5.3,5.3,0,0,1,0-8.73c0.08-.07,0-0.17-0.26,0a6.18,6.18,0,0,0-3,7.2c0.26,1.07-.14,1.27.28,2.68,1,2.94,1.77,3.17,2.92,3.26,2.1,0,.67-1.16.75-2.61,0-.09.1-0.13,0.16,0,1.15,2.59,2,4.94,5,4.72,1.75-.23.78-1.1,0.67-1.59-1.29-4.28,1.84-5.29,1-1.12-0.59,2.39,1.26,2.15,2.57,1.29s3-6.7,2.05-9.91h0m-5.11,5.06a1,1,0,0,1-1.84-.24s0,0,.06,0a8.08,8.08,0,0,0,1.74.23s0.05,0,0,0h0Z" style="fill:#404c4e"/></svg>