<svg id="youtube" xmlns="http://www.w3.org/2000/svg" viewBox="0 0 24 24"><title>wwf</title><path d="M20.74,8.43A3.86,3.86,0,0,0,20,6.66a2.55,2.55,0,0,0-1.79-.76C15.75,5.73,12,5.73,12,5.73h0s-3.74,0-6.24.18A2.55,2.55,0,0,0,4,6.66a3.86,3.86,0,0,0-.71,1.77,27,27,0,0,0-.18,2.89v1.35a27,27,0,0,0,.18,2.89A3.86,3.86,0,0,0,4,17.33a3,3,0,0,0,2,.76c1.43,0.14,6.06.18,6.06,0.18s3.75,0,6.24-.19A2.55,2.55,0,0,0,20,17.33a3.86,3.86,0,0,0,.71-1.77,27,27,0,0,0,.18-2.89V11.32A27,27,0,0,0,20.74,8.43ZM10.16,14.31v-5L15,11.82Z" style="fill:#fff"/></svg>