<svg id="googleplus" xmlns="http://www.w3.org/2000/svg" viewBox="0 0 24 24"><title>wwf</title><polygon points="19.38 11.47 19.38 9.34 18.31 9.34 18.31 11.47 16.19 11.47 16.19 12.53 18.31 12.53 18.31 14.66 19.38 14.66 19.38 12.53 21.5 12.53 21.5 11.47 19.38 11.47" style="fill:#fff"/><path d="M14.94,4.11h-4.3a9.54,9.54,0,0,0-1.83.19,4.73,4.73,0,0,0-1.9,1A3.73,3.73,0,0,0,5.57,8a3,3,0,0,0,.94,2.21,3.36,3.36,0,0,0,2.62,1,6.29,6.29,0,0,0,.69,0l-0.13.36a1.14,1.14,0,0,0-.08.46,1.4,1.4,0,0,0,.21.78,4.4,4.4,0,0,0,.41.63,17.16,17.16,0,0,0-1.89.18,6.85,6.85,0,0,0-2.19.77,3.09,3.09,0,0,0-1.28,1.24,2.84,2.84,0,0,0-.37,1.28,2.49,2.49,0,0,0,1.12,2A5.34,5.34,0,0,0,9,19.89a6.41,6.41,0,0,0,4.13-1.24A3.43,3.43,0,0,0,14.5,16a2.93,2.93,0,0,0-.5-1.72,7.19,7.19,0,0,0-1.19-1.18l-0.73-.58a4.23,4.23,0,0,1-.33-0.35,0.76,0.76,0,0,1-.2-0.54A0.94,0.94,0,0,1,11.75,11a2.9,2.9,0,0,1,.36-0.43L12.74,10a5.64,5.64,0,0,0,.51-0.6,3,3,0,0,0,.51-1.78,3.59,3.59,0,0,0-.14-1.06,3.92,3.92,0,0,0-.39-0.79,3.78,3.78,0,0,0-.48-0.6,2.92,2.92,0,0,0-.46-0.35h1.32ZM12.58,15.41a2,2,0,0,1,.53,1.38,1.94,1.94,0,0,1-.78,1.59A3.78,3.78,0,0,1,10,19a4.56,4.56,0,0,1-2.67-.73,2.12,2.12,0,0,1-1-1.8,1.82,1.82,0,0,1,.24-1,2.2,2.2,0,0,1,.5-0.63,2.84,2.84,0,0,1,.61-0.37l0.46-.18a9.52,9.52,0,0,1,1.36-.29,5.71,5.71,0,0,1,.84,0l0.48,0A12.87,12.87,0,0,1,12.58,15.41Zm-0.7-6.1a2.11,2.11,0,0,1-.35.81,2,2,0,0,1-1.41.59,1.93,1.93,0,0,1-1.19-.4,3.23,3.23,0,0,1-.85-1A4.78,4.78,0,0,1,7.39,7a2.49,2.49,0,0,1,.47-1.54,1.92,1.92,0,0,1,1.45-.68,2.11,2.11,0,0,1,1.17.37,2.77,2.77,0,0,1,.8,1,5.31,5.31,0,0,1,.65,2.47A6.44,6.44,0,0,1,11.89,9.31Z" style="fill:#fff"/></svg>