<svg id="logo" xmlns="http://www.w3.org/2000/svg" viewBox="0 0 69 85"><title>wwf</title><path d="M28.95,60.35a0.78,0.78,0,0,0-.73.51l-1.49,3.77-0.13.43-0.12-.44L25.32,61a0.06,0.06,0,0,0,0,0h0a0.78,0.78,0,0,0-.74-0.53H22.72a0.79,0.79,0,0,0-.75.78,2,2,0,0,0,.09.4l0.24,0.77-0.91,2.29-0.14.42-0.12-.43L20,61a0.11,0.11,0,0,1,0,0h0a0.79,0.79,0,0,0-.74-0.53H17.37a0.79,0.79,0,0,0-.75.78,1.42,1.42,0,0,0,.09.4l2.78,8.29a0.78,0.78,0,0,0,.76.59A0.77,0.77,0,0,0,21,69.9L22.94,65l0.14-.44L23.21,65l1.64,4.88a0.78,0.78,0,0,0,.76.59,0.79,0.79,0,0,0,.75-0.57l3.3-8.4a0.81,0.81,0,0,0,.08-0.34,0.79,0.79,0,0,0-.79-0.79h0Z"/><path d="M42.81,60.35a0.79,0.79,0,0,0-.74.51l-1.48,3.77-0.14.43-0.11-.44L39.18,61a0.08,0.08,0,0,0,0,0h0a0.79,0.79,0,0,0-.74-0.53H36.58a0.78,0.78,0,0,0-.74.78,1.42,1.42,0,0,0,.09.4l0.24,0.77-0.91,2.29-0.15.42L35,64.62,33.85,61l0,0h0a0.77,0.77,0,0,0-.73-0.53H31.23a0.79,0.79,0,0,0-.75.78,1.87,1.87,0,0,0,.09.4l2.79,8.29a0.77,0.77,0,0,0,.75.59,0.79,0.79,0,0,0,.75-0.55L36.81,65l0.14-.44L37.07,65l1.64,4.88a0.79,0.79,0,0,0,1.52,0l3.3-8.4a0.81,0.81,0,0,0,.08-0.34,0.79,0.79,0,0,0-.79-0.79h0Z"/><path d="M51.82,60.37h-6.5a0.68,0.68,0,0,0-.68.68h0v8.63h0a0.74,0.74,0,0,0,.73.71h1.84a0.74,0.74,0,0,0,.72-0.73v-4h2.65a0.71,0.71,0,0,0,0-1.42H47.94V61.89h3.92a0.76,0.76,0,0,0,0-1.52h0Z"/><path d="M41.74,32.85c1.18,1.33,1.31,5.27,4.28,3.7,1.79-.94,1.76-4.92-0.62-6.35-1.93-1.14-3,.4-3.68,2.28a0.36,0.36,0,0,0,0,.37h0Z"/><path d="M37.12,32.22c-1.24,1-2.1,3.85-4.38,2.9-1.85-.94-2-4.6,1.16-6.29,2.22-1,3.35,1,3.36,3.15a0.45,0.45,0,0,1-.14.25h0Z"/><path d="M40.18,39.42c1.23-.13,1-1.26,0-1.55a11.24,11.24,0,0,0-3-.39c-1.58,0-1.54,1.24-.72,1.45a2.57,2.57,0,0,1,1.56,1c0.49,1,.27-0.28,2.12-0.48h0Z"/><path d="M46,19a3.48,3.48,0,0,1,5.57-.79c1.48,1.39,1.72,3,1.15,4.12-0.77,1.52-2.75,3.36-4,1.57a7.32,7.32,0,0,0-2.43-2c-1-.43-1.2-1.34-0.26-2.91h0Z"/><path d="M52.11,30.37c-0.14-.45-0.37-0.43-0.35-0.05C51.88,35,49.09,40,43.11,40c-1.53,0-1.07,2.45-3.86,1.22-2-1.36-3.16,1.31-4.59-1.56a1.87,1.87,0,0,0-1.39-1.31c-5.9-1.46-7.79-9.59-2.58-16.15,1,0.61,1.41.71,2.5-.3a7.72,7.72,0,0,1,2.06-1.31c1.25-.48,1.93-1,0.85-3.4-1.39-3.1-4.23-2.22-5.53-1.15-1.47,1.21-2.5,3.16-.61,5.46-5.29,3.57-6.2,8-6.07,11.76C24,37.35,23,37,24.26,41.13c0.11,0.36-.14.35-0.33,0.24-5.51-3.53-8.49-14.29.1-20.23,0.19-.17.11-0.4-0.59,0C16,25.09,15.31,32.71,16.54,37.84c0.6,2.48-.31,2.94.65,6.21,2.21,6.81,4.1,7.34,6.77,7.54,4.85,0,1.56-2.68,1.74-6,0-.2.24-0.29,0.38,0.11,2.67,6,4.56,11.44,11.57,10.93,4.06-.53,1.81-2.55,1.56-3.69-3-9.92,4.26-12.25,2.21-2.59-1.36,5.54,2.93,5,5.94,3s7-15.52,4.75-22.94h0M40.29,42.1c-0.67,1.78-4.16,1.17-4.27-.55,0-.07.09-0.05,0.13,0a18.72,18.72,0,0,0,4,.53s0.12,0,.1.07h0Z"/><path d="M24.72,54.11a1.3,1.3,0,1,1-1.3-1.29,1.3,1.3,0,0,1,1.3,1.29m-1.3-1.55A1.56,1.56,0,1,0,25,54.11,1.56,1.56,0,0,0,23.42,52.56Z"/><path d="M23.86,54.36a0.39,0.39,0,0,1-.4.32A0.52,0.52,0,0,1,23,54.11a0.49,0.49,0,0,1,.49-0.55,0.4,0.4,0,0,1,.41.31h0.22a0.6,0.6,0,0,0-.63-0.54,0.71,0.71,0,0,0-.73.78,0.73,0.73,0,0,0,.74.78,0.63,0.63,0,0,0,.63-0.54H23.86Z"/><path d="M52.08,57.83a1.3,1.3,0,1,1-1.3-1.29,1.3,1.3,0,0,1,1.3,1.29m-1.3-1.56a1.56,1.56,0,1,0,1.55,1.56A1.55,1.55,0,0,0,50.78,56.27Z"/><path d="M50.51,57.94h0.25l0.39,0.63H51.4L51,57.92a0.38,0.38,0,0,0,.38-0.4,0.41,0.41,0,0,0-.51-0.42H50.28v1.47h0.23V57.94m0-.19V57.28h0.3a0.26,0.26,0,0,1,.32.22c0,0.23-.17.24-0.36,0.24H50.51Z"/><rect x="5.67" width="57.69" height="79.38" style="fill:none"/><polygon points="63.36 79.38 5.67 79.38 5.67 0 4.47 0 4.47 80.58 64.56 80.58 64.56 0 63.36 0 63.36 79.38" style="fill:#231f20"/></svg>