<svg id="pinterest" xmlns="http://www.w3.org/2000/svg" viewBox="0 0 24 24"><title>wwf</title><path d="M12,3.08A8.92,8.92,0,0,0,8.75,20.3a8.55,8.55,0,0,1,0-2.56l1-4.43A3.22,3.22,0,0,1,9.56,12a1.92,1.92,0,0,1,1.61-2.17,1.12,1.12,0,0,1,1.13,1.26,18,18,0,0,1-.74,3,1.29,1.29,0,0,0,1.32,1.61c1.58,0,2.8-1.67,2.8-4.08A3.52,3.52,0,0,0,12,7.95a3.86,3.86,0,0,0-4,3.87,3.47,3.47,0,0,0,.66,2,0.27,0.27,0,0,1,.06.26l-0.25,1c0,0.16-.13.2-0.3,0.12a4,4,0,0,1-1.81-3.45c0-2.81,2-5.4,5.89-5.4a5.23,5.23,0,0,1,5.5,5.15c0,3.07-1.94,5.55-4.63,5.55a2.39,2.39,0,0,1-2-1l-0.56,2.12a10,10,0,0,1-1.11,2.34A8.92,8.92,0,1,0,12,3.08Z" style="fill:#fff"/></svg>