<svg id="planning-grey" xmlns="http://www.w3.org/2000/svg" viewBox="0 0 60 60"><title>wwf</title><path d="M42.33,23.51l-8.5-8.21h-17V27.42l2.22,1.66a23,23,0,0,0-6.19,15.74v0.51H26.44v-0.5a9.55,9.55,0,0,1,3.49-7.35h0l0.16-.12L33,39.53l14.88-5.72V23.51H42.33Zm-13,13.15a10.55,10.55,0,0,0-3.88,7.65H13.9C14.2,33.07,22.68,24,33.12,23.68V35.21a7,7,0,0,0-3.08,1L29.86,36l-0.51.66Z" style="fill:#b5b9ba"/><line x1="19.7" y1="29.07" x2="30.33" y2="36.75" style="fill:none;stroke:#b5b9ba;stroke-miterlimit:10;stroke-dasharray:2,0.800000011920929"/></svg>