<svg id="wildlife-grey" xmlns="http://www.w3.org/2000/svg" viewBox="0 0 60 60"><title>wwf</title><path d="M45.3,13.36c-0.12-.19.07-0.49-0.58-0.49a17.44,17.44,0,0,0-2.29.14c-0.54.09-5.18,1.68-6.37,2s-1.21,0-2,.4c-0.62.3-1.56,1-2.49,1.57-2,.59-7.94,2.31-10.16,2.75a11.7,11.7,0,0,0-6.71,4.39c-0.29.46,0.28,0.79,1,.32A8.67,8.67,0,0,1,19.14,23c0.9,0,.41.43,1.85,0.07s0.92-.86,3.42-1a7.79,7.79,0,0,0,1-.15A13.87,13.87,0,0,0,24,23.58c-1.42,2.08-2.94,5.76-3,8a21.6,21.6,0,0,0,1.31,7.54c0.75,1.63,1.68,2.05,1.68,3.5s-0.37,1.21-1.05,2.26a8,8,0,0,0-1.45,4,2.71,2.71,0,0,0,1.14,2.22c0.28,0,.33-0.12.35-0.35a0.8,0.8,0,0,1,.54-0.68,4.1,4.1,0,0,0,1.28-.91,11.08,11.08,0,0,1,1.17-1.24,2.74,2.74,0,0,0,.82-1.12,8.29,8.29,0,0,0,2.36.54,13.86,13.86,0,0,0,2.78-.07,2.52,2.52,0,0,1,1.91.09c0.26,0.23.27,0.4,0.4,0.35a1.81,1.81,0,0,0-.42-2.4c-1.47-1.37-3.27-2-6.21-2.64-2.59-.53-2.66-3.29-2.31-4.53s5.83-5.86,8.38-9.1L36.07,26a2.53,2.53,0,0,0,.13.34,6.31,6.31,0,0,1,.4.6,0.63,0.63,0,0,0,.23.54,1.63,1.63,0,0,1,.81.84,2.84,2.84,0,0,0,.34.91,2.84,2.84,0,0,1,.12.48c-0.06,1-.18,2.71-0.22,3.11-0.07.57,0.47,1.14,0.87,0.64a19.58,19.58,0,0,0,1.48-3.28s-0.45-4.52-1-7c-0.07-.34-0.14-0.63-0.21-0.88L39.18,22a48.9,48.9,0,0,1,4.13-4,9,9,0,0,0,2-3.39A2.17,2.17,0,0,0,45.3,13.36Zm-13.9,7.1a4.64,4.64,0,0,0,2.14-1.4,4.47,4.47,0,0,1,2.14-1.39,9.36,9.36,0,0,0,4.05-3.13,0.19,0.19,0,0,1,.37.06A9,9,0,0,1,35.8,18a4.09,4.09,0,0,0-2,1.29,5,5,0,0,1-2.29,1.5,23.75,23.75,0,0,0-3.73,1.53,0.19,0.19,0,0,1-.35-0.1C27.45,22.13,27.45,21.86,31.4,20.46Zm-4.5,4.4c1-1.44,3.69-2.47,5.44-3.15l0.25-.1a7.48,7.48,0,0,0,2.33-1.7,16,16,0,0,1,2.65-2.11,10.35,10.35,0,0,0,3.58-3.5,0.19,0.19,0,1,1,.34.18,10.56,10.56,0,0,1-3.71,3.64,15.66,15.66,0,0,0-2.59,2.07A7.77,7.77,0,0,1,32.73,22l-0.25.1c-1.71.66-4.3,1.67-5.27,3A0.19,0.19,0,0,1,26.9,24.86ZM26,29.35l-0.08,0a0.19,0.19,0,0,1-.1-0.25,10.56,10.56,0,0,1,6-5.94,12.68,12.68,0,0,0,3.17-2c1.71-1.56,2.35-2.07,3-2.61,0.49-.39,1-0.79,1.93-1.6a12.16,12.16,0,0,0,2.91-3.34,0.19,0.19,0,0,1,.34.16,12.23,12.23,0,0,1-3,3.47c-0.95.82-1.45,1.22-1.94,1.61-0.7.56-1.3,1-3,2.59a13.16,13.16,0,0,1-3.25,2,10.24,10.24,0,0,0-5.83,5.75A0.19,0.19,0,0,1,26,29.35Zm1.18,2.55A0.19,0.19,0,0,1,27,32H26.93a0.19,0.19,0,0,1-.13-0.23,16.18,16.18,0,0,1,1.5-3.33c1.33-2.34,4.14-4.46,6.86-6.5,1.07-.81,2.18-1.64,3.16-2.46,4.7-3.95,5.58-5.56,5.59-5.57a0.19,0.19,0,0,1,.34.18c0,0.07-.9,1.67-5.68,5.69-1,.83-2.09,1.66-3.17,2.47-2.69,2-5.47,4.11-6.76,6.38A16.13,16.13,0,0,0,27.17,31.9ZM43.56,17.11a24.2,24.2,0,0,1-3,2.93c-1,.91-2.05,1.86-2.57,2.45a32.5,32.5,0,0,1-2.3,2.31,20.58,20.58,0,0,0-3.18,3.48,0.19,0.19,0,0,1-.16.09,0.19,0.19,0,0,1-.1,0,0.19,0.19,0,0,1-.06-0.26,20.85,20.85,0,0,1,3.24-3.55,32.08,32.08,0,0,0,2.27-2.29c0.53-.61,1.53-1.52,2.6-2.48a25,25,0,0,0,2.9-2.86A0.19,0.19,0,1,1,43.56,17.11Zm0.78-1.68s-2,2-2.68,2.61c-2.66,2.53-4.31,4-6.07,5.49l-2.07,1.81a16,16,0,0,0-3.66,4.32l-0.53.82A0.19,0.19,0,0,1,29,30.27l0.52-.82a16.54,16.54,0,0,1,3.73-4.4l2.07-1.81c1.75-1.52,3.4-3,6.05-5.48,0.69-.65,2.66-2.59,2.67-2.61A0.19,0.19,0,0,1,44.34,15.43Z" style="fill:#fff"/></svg>