<svg id="explore-dark" xmlns="http://www.w3.org/2000/svg" viewBox="0 0 50 50"><title>wwf</title><polygon points="33.27 27.71 25.08 32.88 16.79 27.55 12.35 30.35 25.14 38.58 37.76 30.61 33.27 27.71" style="fill:none;stroke:#2b383a;stroke-miterlimit:10"/><polyline points="33.27 27.71 37.7 24.91 33.55 22.24 29.12 25.04" style="fill:none;stroke:#2b383a;stroke-miterlimit:10"/><polyline points="20.88 24.96 16.39 22.06 12.29 24.65 16.79 27.55" style="fill:none;stroke:#2b383a;stroke-miterlimit:10"/><polyline points="29.12 25.04 25.03 27.63 20.88 24.96" style="fill:none;stroke:#2b383a;stroke-miterlimit:10"/><polyline points="33.55 22.24 37.65 19.65 24.86 11.42 12.24 19.39 16.39 22.06" style="fill:none;stroke:#2b383a;stroke-miterlimit:10"/><polyline points="33.55 22.24 24.91 16.68 16.39 22.06" style="fill:none;stroke:#2b383a;stroke-miterlimit:10;stroke-opacity:0.6000000000000001;opacity:0.9"/><polyline points="29.12 25.04 24.97 22.37 20.88 24.96" style="fill:none;stroke:#2b383a;stroke-miterlimit:10;stroke-opacity:0.30000000000000004"/><line x1="29.12" y1="25.04" x2="33.27" y2="27.71" style="fill:none;stroke:#2b383a;stroke-miterlimit:10;stroke-opacity:0.6000000000000001"/><line x1="16.79" y1="27.54" x2="20.88" y2="24.96" style="fill:none;stroke:#2b383a;stroke-miterlimit:10;stroke-opacity:0.6000000000000001"/></svg>