<svg id="pacific-white" xmlns="http://www.w3.org/2000/svg" xmlns:xlink="http://www.w3.org/1999/xlink" viewBox="0 0 60 60"><defs><clipPath id="clip-path"><path d="M39.4,42.38C38.66,39.77,38,37.74,38,37.74a43.72,43.72,0,0,0-2-7.16c-0.88-2.78-1.77-3.23-2.45-4.4s-1.41-1.22-1.87-1S30.2,26.6,28.4,29.07s-2.76,8.77-3.28,9.76a21.42,21.42,0,0,0-1.33,6.69c0,1.45-.21,4.16-0.08,6.64,0,0.63,17.52.26,17.52,0.26A85.66,85.66,0,0,0,39.4,42.38Z" style="fill:#eaebeb"/></clipPath></defs><title>wwf</title><path d="M54.64,37.17a3.92,3.92,0,0,0-.37-1.69,9.26,9.26,0,0,1-2.14-2.36A3.38,3.38,0,0,0,50.89,32S49.27,30.69,49,30.47A3,3,0,0,0,48.24,30L45,28.41l-2.5-2.06A23.63,23.63,0,0,0,39,25.68c-1.25-.07-1.25-0.81-2.43-0.15s-2.8,0-4.86.74-1.91,2-3.83,2.8a21.41,21.41,0,0,1-4.42,1.18s-2.21.74-4.56,1.55-3.68.88-4.79,2.28a6.57,6.57,0,0,1-1.84,1.77l-0.74,1.33H54.64Z" style="fill:#1a8c87"/><path d="M54.94,37.17a33.13,33.13,0,0,0-2.38-2.71A7,7,0,0,0,50,33.78a8.22,8.22,0,0,1-3,.1,18.4,18.4,0,0,0-2.67-.39s-3.12.29-3.71,0.29a18.1,18.1,0,0,0-3.27,1.36l-0.74,2H54.94Z" style="fill:#1b7d79"/><path d="M58.47,37.17l-1.82-1.93A22.29,22.29,0,0,0,54,33.36c-0.59,0-1.88,0-1.88,0l-1.88-.58-2.58.12-3.57-.58-1.68.46s-1.19,2.42-2,2.89-1.39.27-2.08,0.92a7,7,0,0,0-.49.58H58.47Z" style="fill:#1d6967"/><path d="M33.66,37.17A8.19,8.19,0,0,1,32.26,35c0-.52-1.47-0.66-1.47-0.66l-0.59-.74-2.72-.29S20.7,31.2,20.18,31.2a18.81,18.81,0,0,1-2.72-.15c-0.81-.15-4.12,1.1-4.12,1.1l-2.43.07a19.2,19.2,0,0,0-2.43,2.5,1.85,1.85,0,0,1-.74.15,4.52,4.52,0,0,0-2,.88,12.38,12.38,0,0,1-2.36.66C3,36.58,2.59,36.8,2.59,36.8l-0.37.37H33.66Z" style="fill:#1b7d79"/><path d="M27.2,51.12A4.67,4.67,0,0,1,25.12,51a7.71,7.71,0,0,0-4.67.35,11.07,11.07,0,0,0-1.2.71l8,0.34V51.12Z" style="fill:#1a8c87"/><path d="M42.91,51.68c-1.41.19-2.47-.91-4.08-0.55s-0.2-.87-0.54-1a0.33,0.33,0,0,0-.42.09v1.5a10.4,10.4,0,0,1,1.44.56c0.35,0.22.06,0.63,2.21,0.37s3.77,0.36,3.81.09S44.65,51.45,42.91,51.68Z" style="fill:#1a8c87"/><path d="M24.8,39.38a1.59,1.59,0,0,1,.66,1.33,39,39,0,0,0-1.33,5.23c0,1.25-.62.86-0.9,1.29s-0.12,1.09-1.29,1.37-3.12,1.25-4.8.94-3.12,0-2.73-1.83,2.5-4.41,5.27-6.05A22.66,22.66,0,0,1,24.8,39.38Z" style="fill:#eaebeb"/><path d="M39.4,42.38C38.66,39.77,38,37.74,38,37.74a43.72,43.72,0,0,0-2-7.16c-0.88-2.78-1.77-3.23-2.45-4.4s-1.41-1.22-1.87-1S30.2,26.6,28.4,29.07s-2.76,8.77-3.28,9.76a21.42,21.42,0,0,0-1.33,6.69c0,1.45-.21,4.16-0.08,6.64,0,0.63,17.52.26,17.52,0.26A85.66,85.66,0,0,0,39.4,42.38Z" style="fill:#eaebeb"/><g style="clip-path:url(#clip-path)"><path d="M36.59,33a1,1,0,0,0-.94-0.39,4.05,4.05,0,0,0-.12,3c0.43,0.7,1.13,2.93,1.48,2.19s0.08-2.93,0-3.75A1.76,1.76,0,0,0,36.59,33Z" style="fill:#fff"/><path d="M23.08,54.43s-0.59-20.83-.47-20.91,7.53-7.69,7.53-7.69S31.28,25,32,25.72s2.81,7,2.62,9.25-0.78,4.45-2.22,5.78c0,0,0-1.41-.86-1.64s-2.34-.23-2.5,1.21,1.52,0.31-.2,2.85-2,8.12-2,11.24" style="fill:#fff"/></g><path d="M44.33,52.64A30.06,30.06,0,0,0,36.08,52a34.3,34.3,0,0,1-12.36-.31c-0.15,0-5,.73-4.27.76a10.56,10.56,0,0,1,3.72.52c1.86,0.76,5.17,1,10.74-.07a17.29,17.29,0,0,1,7.3.34A3.52,3.52,0,0,0,44.33,52.64Z" style="fill:#1a8c87"/><path d="M32.09,40.3c-0.46-.42-1.75-0.67-2-0.17a3.42,3.42,0,0,0-.29,2c0.21,0.33,2.63,6.84,3,7.3s1.34-1,.75-2.42a28,28,0,0,1-1.46-5.51l0.13-.63Z" style="fill:#eaebeb"/><path d="M17.17,52.18A6.34,6.34,0,0,1,20,52a6.23,6.23,0,0,0,3.07-.64,0.51,0.51,0,0,1,.42,0v0.8s-1.08.19-1.44,0.31a26.84,26.84,0,0,1-3.07,0c-2.16,0-2.45.31-2.5,0.16A1.65,1.65,0,0,1,17.17,52.18Z" style="fill:#1a8c87"/></svg>