<svg id="instagram" xmlns="http://www.w3.org/2000/svg" viewBox="0 0 24 24"><title>wwf</title><path d="M18.1,4H5.9A1.9,1.9,0,0,0,4,5.9V18.1A1.9,1.9,0,0,0,5.9,20H18.1A1.9,1.9,0,0,0,20,18.1V5.9A1.9,1.9,0,0,0,18.1,4ZM16,6h1.5a0.5,0.5,0,0,1,.5.5V8a0.5,0.5,0,0,1-.5.5H16A0.5,0.5,0,0,1,15.5,8V6.5A0.5,0.5,0,0,1,16,6ZM12,8.95A3.07,3.07,0,1,1,8.94,12,3.07,3.07,0,0,1,12,8.95Zm6,9.55H6A0.5,0.5,0,0,1,5.5,18V10.5h2A3.06,3.06,0,0,0,7.15,12a4.87,4.87,0,0,0,9.73,0,2.56,2.56,0,0,0-.39-1.52h2V18A0.5,0.5,0,0,1,18,18.5Z" style="fill:#fff"/></svg>