<svg id="atlantic" xmlns="http://www.w3.org/2000/svg" xmlns:xlink="http://www.w3.org/1999/xlink" viewBox="0 0 60 60"><defs><clipPath id="clip-path"><path d="M22.89,31.78a11.55,11.55,0,0,0,1.51,2.51c0.51,0.35,1.7,2.05,2.92,2.43A10.27,10.27,0,0,1,31,38.13a9.61,9.61,0,0,0,3.62,1.67c0.49,0,2.85-1.05,3.66-1.13s1.77-.91,2.77-1,1.73-.18,1.73-0.18a2,2,0,0,0,1.35-.34c0.43-.27,2.09-1.67,3.66-1.35s2.83,1.05,2.75,2.67-0.89,1.7-1.19,2.94-0.78.89-1.43,2S46.2,46.93,45.2,48s-2.81,2-6.08,2.54a17.75,17.75,0,0,1-10.24-.92c-3.16-1.46-8.16-4.51-9.24-6.48A10.17,10.17,0,0,1,18,37.8,18.18,18.18,0,0,1,18.78,33a6.24,6.24,0,0,1,1.06-1.58c0.58-.54,1.37-1.22,1-1.8A5.78,5.78,0,0,0,19,27.07a3.44,3.44,0,0,1-1.22-3.35c0.18-.14.36,0,0.61,0.14s2.38,0,3.82.5,1.4,0.9,1.4.9A4.4,4.4,0,0,1,26.72,25c1.55,0.54,1.84.54,2.34,0.43s0.4,0.54.22,0.65a6.6,6.6,0,0,1-2.77,2.05c-2.12.94-3,1.22-3.31,2A5.86,5.86,0,0,0,22.89,31.78Z" style="fill:#0094be"/></clipPath></defs><title>wwf</title><polygon points="35.13 34.51 34.67 33.72 34.27 33.54 33.47 33.55 32.75 33.15 32.5 33.09 31.99 32.51 31.23 32.75 29.43 33.29 27.99 33.33 27.54 33.49 26.98 33.48 26.05 32.91 18.87 31.98 16.19 31.17 13.11 30.8 12.73 30.8 11.72 31.07 10.1 32.26 8.43 33.52 7.76 33.7 7.36 33.9 6.04 35.22 5.5 36.15 35.31 36.15 35.13 34.51" style="fill:#eaebeb"/><polygon points="49.88 29.54 50.21 29.26 50.05 28.96 49.65 28.65 46.99 28.96 46.38 28.96 44.64 29.68 44.08 29.66 43.61 30.04 43.08 30.11 42.6 30.78 40.69 30.87 40.45 31.03 39.31 31.3 39.11 32.67 39.28 33.02 39.16 34.8 39.39 35.7 39.3 36.15 39.26 36.15 45.71 36.15 49.88 29.54" style="fill:#bfc3c4"/><path d="M57.13,36.14L57,35.88h-0.6a2.25,2.25,0,0,0-.4-0.1h-0.4l-0.86-.5-0.26.07-0.2.79h2.88Z" style="fill:#bfc3c4"/><path d="M53.39,36.14l-1-.43-0.17-.26-0.69,0,0.08-1.17-0.38-.84,0.07-.26-0.26-.45-0.31-.94-0.1-1.17-0.13-.76-0.28-.56-2.58.15-0.78.48-1,4.33-0.31.61-0.12.65-0.51.23a4.07,4.07,0,0,1-.13.45s0,0,0,0h8.62Z" style="fill:#bfc3c4"/><path d="M37.86,36.14l0-.69,0-.35-0.17-.25,0.07-.33,0-.33a0.74,0.74,0,0,0,0-.38l-2.1,0-0.94.35-1.32.24-1.3.33L31.48,35l-0.33.15-0.46-.64-0.46-.06-0.41.15-2.35.2-1.22.35-0.84.08-2,0-0.66.2-0.78.07-7-.66-0.76,0-0.46.3a2.91,2.91,0,0,1-.51.48H12.71l-0.38.18-0.22.4H37.86Z" style="fill:#d5d7d8"/><polygon points="11.78 36.13 11.45 35.11 10.92 34.98 10.19 34.78 9.53 35.11 8.74 35.07 8.67 35.27 8.14 35.47 7.45 36.13 11.78 36.13" style="fill:#d5d7d8"/><path d="M9.3,32.24V32.3L9,32.49v0h0s0,0.49,0,.51H9.58s0-.51,0-0.51h0v0L9.35,32.3V32.24" style="fill:#d5d7d8"/><polygon points="9.86 35.14 9.82 35.08 9.65 33.17 9.76 33.11 9.76 33.06 9.71 33.01 9.42 32.95 9.32 32.97 9.23 32.95 8.94 33.01 8.89 33.06 8.89 33.11 9 33.17 8.83 35.08 8.79 35.14 8.79 35.18 9.32 35.11 9.86 35.18 9.86 35.14" style="fill:#d5d7d8"/><rect x="9.25" y="33.27" width="0.13" height="0.24" style="fill:#d5d7d8"/><rect x="9.25" y="33.93" width="0.13" height="0.24" style="fill:#d5d7d8"/><rect x="9.25" y="34.65" width="0.13" height="0.24" style="fill:#d5d7d8"/><path d="M43.59,48.59s1.1,2.56,1.28,3.27-0.58,2.12-1.1,3a1.71,1.71,0,0,1-1.59,1C41.91,55.72,39,54.13,39,53.52a26.49,26.49,0,0,1,1-4Z" style="fill:#0485ad"/><path d="M22.89,31.78a11.55,11.55,0,0,0,1.51,2.51c0.51,0.35,1.7,2.05,2.92,2.43A10.27,10.27,0,0,1,31,38.13a9.61,9.61,0,0,0,3.62,1.67c0.49,0,2.85-1.05,3.66-1.13s1.77-.91,2.77-1,1.73-.18,1.73-0.18a2,2,0,0,0,1.35-.34c0.43-.27,2.09-1.67,3.66-1.35s2.83,1.05,2.75,2.67-0.89,1.7-1.19,2.94-0.78.89-1.43,2S46.2,46.93,45.2,48s-2.81,2-6.08,2.54a17.75,17.75,0,0,1-10.24-.92c-3.16-1.46-8.16-4.51-9.24-6.48A10.17,10.17,0,0,1,18,37.8,18.18,18.18,0,0,1,18.78,33a6.24,6.24,0,0,1,1.06-1.58c0.58-.54,1.37-1.22,1-1.8A5.78,5.78,0,0,0,19,27.07a3.44,3.44,0,0,1-1.22-3.35c0.18-.14.36,0,0.61,0.14s2.38,0,3.82.5,1.4,0.9,1.4.9A4.4,4.4,0,0,1,26.72,25c1.55,0.54,1.84.54,2.34,0.43s0.4,0.54.22,0.65a6.6,6.6,0,0,1-2.77,2.05c-2.12.94-3,1.22-3.31,2A5.86,5.86,0,0,0,22.89,31.78Z" style="fill:#0094be"/><g style="clip-path:url(#clip-path)"><path d="M36.88,45c0-.36-0.25-0.58-0.54-0.36a10.88,10.88,0,0,1-3,.5A18.25,18.25,0,0,0,30,45.9a3,3,0,0,0-1.58.72,0.4,0.4,0,0,0,.14.61,5.68,5.68,0,0,0,1.58.29c0.47,0,1.8-.5,2.05-0.5S31.95,48,31.95,48s0.11,0.11-2.09.22-2.34.25-4-.43S23.88,47,23.88,47s6.55,4.5,8,4.61,7.38,0.4,10.7-1.26a6,6,0,0,0,2.74-1.44c0.86-1,3.39-4,2.63-4.21s-0.25,1.44-3.1.18S42.32,42.66,41.2,43s-1.44,2.2-3.17,2.81-2.12.65-1.87,0.25S36.88,45,36.88,45Z" style="fill:#0485ad"/><path d="M49.16,41.37a2.52,2.52,0,0,0-1-1.73c-0.65-.29-0.11-0.11-1.4-0.18s-2.56-.47-2.85-0.4-0.4.29-.14,0.29,2.27,0.36,2.92.36,1.19-.18,1.51.32,1.26,1.22.61,1.62-1.4.32-1.66,0.9a2.12,2.12,0,0,1-2,1.51c-1.3,0-1.69-.54-2.38-0.65s-0.5,1-.5,1l4.18,1.26,3.35-1.26Z" style="fill:#0485ad"/><path d="M50.42,36.76s0.76,1.37-.07,1.8-1.22.22-1.22,0.5a4.38,4.38,0,0,1,.32,1.26c0,0.65-.14,1.51.43,1.15s1.4-3.85,1.4-3.85Z" style="fill:#0485ad"/><path d="M23.23,30A4.53,4.53,0,0,1,24,28.19a1.72,1.72,0,0,1,1.48-.25,1.8,1.8,0,0,0,.54.25l-0.72,1.15Z" style="fill:#0485ad"/><circle cx="43" cy="38.81" r="0.25" style="fill:#006c8a"/></g></svg>