<svg id="basemap" xmlns="http://www.w3.org/2000/svg" viewBox="0 0 60 60"><title>wwf</title><polygon points="39.1 20.89 21.53 14.5 12.66 18.24 12.66 42.85 21.53 39.11 39.1 45.5 47.5 40.52 47.5 15.9 39.1 20.89" style="fill:none;stroke:#b5b9ba;stroke-miterlimit:10"/><line x1="38.95" y1="20.58" x2="38.95" y2="45.03" style="fill:none;stroke:#b5b9ba;stroke-miterlimit:10"/><line x1="21.53" y1="14.66" x2="21.53" y2="39.27" style="fill:none;stroke:#b5b9ba;stroke-miterlimit:10"/><path d="M12.62,36.77s4.42-7.29,9-7.46c6.26-.24,9.69,10.4,17.29,10.4s8.1-8,8.59-10.64l0,11.38L39.16,45.5,21.49,39.13l-9,3.59Z" style="fill:#b5b9ba"/><path d="M32.62,18.54c1.35,2.32,2.94,6.61-2.94,7.22-2.23.23-5.07-1.63-8.34-4.24-2-1.57-6.71-1.47-8.83,1.31" style="fill:none;stroke:#b5b9ba;stroke-miterlimit:10"/><path d="M43,18.7c1.69,3.7,3.32,13.1-4,14.07-2.78.37-6.9-2.1-13.41-5.87-5.07-2.94-9-1.47-12.92,2.12" style="fill:none;stroke:#b5b9ba;stroke-miterlimit:10"/></svg>