<svg id="basemap-white" xmlns="http://www.w3.org/2000/svg" viewBox="0 0 60 60"><title>wwf</title><polygon points="39.28 20.52 21.37 14 12.33 17.82 12.33 42.97 21.37 39.15 39.28 45.67 47.84 40.58 47.84 15.43 39.28 20.52" style="fill:none;stroke:#fff;stroke-miterlimit:10"/><line x1="39.12" y1="20.21" x2="39.12" y2="45.19" style="fill:none;stroke:#fff;stroke-miterlimit:10"/><line x1="21.37" y1="14.16" x2="21.37" y2="39.3" style="fill:none;stroke:#fff;stroke-miterlimit:10"/><path d="M12.29,36.75s4.5-7.44,9.13-7.62c6.38-.25,9.88,10.63,17.62,10.63s8.25-8.12,8.75-10.87l0,11.63-8.5,5.17-18-6.5-9.17,3.67Z" style="fill:#fff"/><path d="M32.67,18.13c1.38,2.38,3,6.75-3,7.38-2.27.24-5.17-1.67-8.5-4.33-2-1.61-6.83-1.5-9,1.33" style="fill:none;stroke:#fff;stroke-miterlimit:10"/><path d="M43.27,18.29c1.72,3.78,3.39,13.38-4.11,14.37-2.83.38-7-2.14-13.67-6-5.17-3-9.17-1.5-13.17,2.17" style="fill:none;stroke:#fff;stroke-miterlimit:10"/></svg>