<svg id="ecology-grey" xmlns="http://www.w3.org/2000/svg" viewBox="0 0 60 60"><title>wwf</title><path d="M37.61,39.46c-1.69,0-2.23-1.05-3.78-1.05S31.69,39.46,30,39.46" style="fill:none;stroke:#b5b9ba;stroke-miterlimit:10"/><path d="M30,39.46c-1.69,0-2.23-1.05-3.78-1.05s-2.14,1.05-3.83,1.05" style="fill:none;stroke:#b5b9ba;stroke-miterlimit:10"/><path d="M45.22,39.46c-1.69,0-2.23-1.05-3.78-1.05s-2.14,1.05-3.83,1.05" style="fill:none;stroke:#b5b9ba;stroke-miterlimit:10"/><path d="M22.39,39.46c-1.69,0-2.23-1.05-3.78-1.05s-2.14,1.05-3.83,1.05" style="fill:none;stroke:#b5b9ba;stroke-miterlimit:10"/><path d="M37.61,43.82c-1.69,0-2.23-1.05-3.78-1.05S31.69,43.82,30,43.82" style="fill:none;stroke:#b5b9ba;stroke-miterlimit:10"/><path d="M30,43.82c-1.69,0-2.23-1.05-3.78-1.05s-2.14,1.05-3.83,1.05" style="fill:none;stroke:#b5b9ba;stroke-miterlimit:10"/><path d="M45.22,43.82c-1.69,0-2.23-1.05-3.78-1.05s-2.14,1.05-3.83,1.05" style="fill:none;stroke:#b5b9ba;stroke-miterlimit:10"/><path d="M22.39,43.82c-1.69,0-2.23-1.05-3.78-1.05s-2.14,1.05-3.83,1.05" style="fill:none;stroke:#b5b9ba;stroke-miterlimit:10"/><path d="M37.61,35.11c-1.69,0-2.23-1.05-3.78-1.05S31.69,35.11,30,35.11" style="fill:none;stroke:#b5b9ba;stroke-miterlimit:10"/><path d="M30,35.11c-1.69,0-2.23-1.05-3.78-1.05s-2.14,1.05-3.83,1.05" style="fill:none;stroke:#b5b9ba;stroke-miterlimit:10"/><path d="M45.22,35.11c-1.69,0-2.23-1.05-3.78-1.05s-2.14,1.05-3.83,1.05" style="fill:none;stroke:#b5b9ba;stroke-miterlimit:10"/><path d="M22.39,35.11c-1.69,0-2.23-1.05-3.78-1.05s-2.14,1.05-3.83,1.05" style="fill:none;stroke:#b5b9ba;stroke-miterlimit:10"/><rect x="14.88" y="26.27" width="30" height="20" transform="translate(59.76 72.53) rotate(-180)" style="fill:none;stroke:#b5b9ba;stroke-miterlimit:10"/><path d="M45.22,30.92H30.85c-5.21,0-9.5,1.45-9.5,4.35L26.62,34a27.11,27.11,0,0,0,2.69,1.31c0.25,0,4.56-1.25,4.56-1.25l3.25,1.19,4.19-1.37L45,34.85Z" style="fill:#b5b9ba"/><rect x="33.96" y="27.77" width="1.88" height="4.15" transform="translate(69.8 59.69) rotate(-180)" style="fill:none;stroke:#b5b9ba;stroke-miterlimit:10"/><rect x="40.48" y="27.77" width="1.88" height="4.15" transform="translate(82.83 59.69) rotate(-180)" style="fill:none;stroke:#b5b9ba;stroke-miterlimit:10"/><polygon points="29.08 29.14 31.49 25.25 29.7 25.25 32.03 21.49 30.48 21.49 32.58 18.09 31.19 18.09 34.76 12.32 38.33 18.09 36.93 18.09 39.03 21.49 37.48 21.49 39.81 25.25 38.03 25.25 40.43 29.14 29.08 29.14" style="fill:#b5b9ba"/><polygon points="34.87 29.14 37.64 24.65 35.58 24.65 38.27 20.31 36.48 20.31 38.9 16.39 37.29 16.39 41.41 9.73 45.53 16.39 43.92 16.39 46.35 20.31 44.56 20.31 47.24 24.65 45.19 24.65 47.96 29.14 34.87 29.14" style="fill:#b5b9ba"/></svg>