<svg id="population-atlantic" xmlns="http://www.w3.org/2000/svg" xmlns:xlink="http://www.w3.org/1999/xlink" viewBox="0 0 40 40"><defs><clipPath id="clip-path"><path d="M19.15,16.61a5,5,0,0,1,1.55-.41c0.47,0,.25.06,0.91,0s3.07-.68,4.88-1a20.46,20.46,0,0,1,4.88-.47,10.53,10.53,0,0,1,3.81,1,12.91,12.91,0,0,1,2.58,1.79,1.38,1.38,0,0,1,.72.9,0.32,0.32,0,0,1-.21.21v0.05a0.62,0.62,0,0,1-.41.38,23.08,23.08,0,0,1-2.36.48,43.92,43.92,0,0,1-4.8.41A6.76,6.76,0,0,1,27.16,19a29.53,29.53,0,0,0-4.85-1.35,2.41,2.41,0,0,0-1.5-.07h0a0.73,0.73,0,0,1-.41,0A13,13,0,0,1,18.92,17C18.83,16.9,18.86,16.79,19.15,16.61Z" style="fill:#199fc4"/></clipPath><clipPath id="clip-path-2"><path d="M4.78,7.61A5,5,0,0,1,6.33,7.2c0.47,0,.25.06,0.91,0s3.07-.68,4.88-1A20.46,20.46,0,0,1,17,5.74a10.53,10.53,0,0,1,3.81,1A12.91,12.91,0,0,1,23.4,8.49a1.38,1.38,0,0,1,.72.9,0.32,0.32,0,0,1-.21.21V9.66a0.62,0.62,0,0,1-.41.38,23.08,23.08,0,0,1-2.36.48,43.92,43.92,0,0,1-4.8.41A6.76,6.76,0,0,1,12.78,10,29.53,29.53,0,0,0,7.94,8.69a2.41,2.41,0,0,0-1.5-.07h0a0.73,0.73,0,0,1-.41,0A13,13,0,0,1,4.54,8C4.46,7.9,4.48,7.79,4.78,7.61Z" style="fill:#199fc4"/></clipPath><clipPath id="clip-path-3"><path d="M5.6,23.57a5,5,0,0,1,1.55-.41c0.47,0,.25.06,0.91,0s3.07-.68,4.88-1a20.46,20.46,0,0,1,4.88-.47,10.53,10.53,0,0,1,3.81,1,12.91,12.91,0,0,1,2.58,1.79,1.38,1.38,0,0,1,.72.9,0.32,0.32,0,0,1-.21.21v0.05a0.62,0.62,0,0,1-.41.38,23.08,23.08,0,0,1-2.36.48,43.92,43.92,0,0,1-4.8.41A6.76,6.76,0,0,1,13.61,26a29.53,29.53,0,0,0-4.85-1.35,2.41,2.41,0,0,0-1.5-.07h0a0.73,0.73,0,0,1-.41,0A13,13,0,0,1,5.37,24C5.28,23.86,5.31,23.75,5.6,23.57Z" style="fill:#199fc4"/></clipPath><clipPath id="clip-path-4"><path d="M15.28,32.81a5,5,0,0,1,1.55-.41c0.47,0,.25.06,0.91,0s3.07-.68,4.88-1a20.46,20.46,0,0,1,4.88-.47,10.53,10.53,0,0,1,3.81,1,12.91,12.91,0,0,1,2.58,1.79,1.38,1.38,0,0,1,.72.9,0.32,0.32,0,0,1-.21.21v0.05a0.62,0.62,0,0,1-.41.38,23.08,23.08,0,0,1-2.36.48,43.92,43.92,0,0,1-4.8.41,6.76,6.76,0,0,1-3.57-.88,29.53,29.53,0,0,0-4.85-1.35,2.41,2.41,0,0,0-1.5-.07h0a0.73,0.73,0,0,1-.41,0,13,13,0,0,1-1.47-.58C15,33.1,15,33,15.28,32.81Z" style="fill:#199fc4"/></clipPath></defs><title>wwf</title><path d="M38.49,18.4a1.38,1.38,0,0,0-.72-0.9,12.91,12.91,0,0,0-2.58-1.79,13.66,13.66,0,0,0-2.52-.82,12.45,12.45,0,0,0-2-.58,2.41,2.41,0,0,0-1.53,0,0.6,0.6,0,0,0-.1.31l0.25,0.23-0.29,0-2.48-.57a1.21,1.21,0,0,0-1.44.71,2.46,2.46,0,0,0-.17.56l-0.11,0a18.86,18.86,0,0,0-2.7-.73,0.84,0.84,0,0,0-.64.77c-0.1.29-.18,0.5-0.23,0.63s-0.19,0-.36,0c-0.48-.25-1.45-0.77-2-1.06s-1.19-.68-1.42-0.25a3.57,3.57,0,0,0-.36,1.27,5.09,5.09,0,0,0,.15,2,0.92,0.92,0,0,0,.41.66,1.87,1.87,0,0,0,1.06-.28l2.1-.89h0a1.1,1.1,0,0,1,.58-0.07l0.53,0.58A1,1,0,0,0,23,18.6c0.39,0,1.23-.18,1.87-0.31l0.29,0.08c0.07,0.19.34,0.9,0.45,1.13a0.75,0.75,0,0,0,.84.37,21.81,21.81,0,0,0,2.2-.23,5.57,5.57,0,0,0,2.1.28c0.94,0,2.12-.1,3.07-0.2-0.66.27-1.39,0.57-1.46,0.62s0,0.23.11,0.35a2.8,2.8,0,0,0,1.49-.61l0.81-.47,0.79-.11A23.08,23.08,0,0,0,37.89,19a0.62,0.62,0,0,0,.41-0.38V18.6A0.32,0.32,0,0,0,38.49,18.4Z" style="fill:#0094be"/><path d="M19.15,16.61a5,5,0,0,1,1.55-.41c0.47,0,.25.06,0.91,0s3.07-.68,4.88-1a20.46,20.46,0,0,1,4.88-.47,10.53,10.53,0,0,1,3.81,1,12.91,12.91,0,0,1,2.58,1.79,1.38,1.38,0,0,1,.72.9,0.32,0.32,0,0,1-.21.21v0.05a0.62,0.62,0,0,1-.41.38,23.08,23.08,0,0,1-2.36.48,43.92,43.92,0,0,1-4.8.41A6.76,6.76,0,0,1,27.16,19a29.53,29.53,0,0,0-4.85-1.35,2.41,2.41,0,0,0-1.5-.07h0a0.73,0.73,0,0,1-.41,0A13,13,0,0,1,18.92,17C18.83,16.9,18.86,16.79,19.15,16.61Z" style="fill:#199fc4"/><g style="clip-path:url(#clip-path)"><path d="M37.48,19.43c0.08,0,.88-0.54.72-0.67a0.48,0.48,0,0,0-.57-0.14,0.75,0.75,0,0,1-.83.26,1.54,1.54,0,0,1-1.34-.46,5.66,5.66,0,0,1-.76-1.07,3.38,3.38,0,0,1-.17-0.63,0.1,0.1,0,0,0-.17,0,8.86,8.86,0,0,0,.51,1.58c0.24,0.55.35,0.2-1.27,0.6s-1,.6-2.33.58a32.8,32.8,0,0,1-5.49-1.07,21.7,21.7,0,0,0-2.61-.44l7.64,2.52Z" style="fill:#0094be"/></g><path d="M34.4,17.18a3.88,3.88,0,0,0-1.18-.58,2.79,2.79,0,0,0-1-.09,3.25,3.25,0,0,0,.65.41,2.44,2.44,0,0,0,.47.54,2.3,2.3,0,0,0,.84-0.07A0.26,0.26,0,0,0,34.4,17.18Z" style="fill:#0094be"/><circle cx="36.88" cy="17.21" r="0.13" transform="translate(-0.5 1.12) rotate(-1.74)" style="fill:#0094be"/><path d="M24.12,9.4a1.38,1.38,0,0,0-.72-0.9A12.91,12.91,0,0,0,20.82,6.7a13.66,13.66,0,0,0-2.52-.82,12.45,12.45,0,0,0-2-.58,2.41,2.41,0,0,0-1.53,0,0.6,0.6,0,0,0-.1.31L14.91,5.8l-0.29,0-2.48-.57A1.21,1.21,0,0,0,10.7,6a2.46,2.46,0,0,0-.17.56l-0.11,0a18.86,18.86,0,0,0-2.7-.73,0.84,0.84,0,0,0-.64.77c-0.1.29-.18,0.5-0.23,0.63s-0.19,0-.36,0C6,6.94,5,6.42,4.46,6.13S3.27,5.45,3,5.88a3.57,3.57,0,0,0-.36,1.27,5.09,5.09,0,0,0,.15,2,0.92,0.92,0,0,0,.41.66A1.87,1.87,0,0,0,4.3,9.52l2.1-.89h0A1.1,1.1,0,0,1,7,8.55L7.55,9.13A1,1,0,0,0,8.6,9.6c0.39,0,1.23-.18,1.87-0.31l0.29,0.08c0.07,0.19.34,0.9,0.45,1.13a0.75,0.75,0,0,0,.84.37,21.81,21.81,0,0,0,2.2-.23,5.57,5.57,0,0,0,2.1.28c0.94,0,2.12-.1,3.07-0.2C18.77,11,18,11.29,18,11.35s0,0.23.11,0.35a2.8,2.8,0,0,0,1.49-.61l0.81-.47,0.79-.11A23.08,23.08,0,0,0,23.51,10a0.62,0.62,0,0,0,.41-0.38V9.6A0.32,0.32,0,0,0,24.12,9.4Z" style="fill:#0094be"/><path d="M4.78,7.61A5,5,0,0,1,6.33,7.2c0.47,0,.25.06,0.91,0s3.07-.68,4.88-1A20.46,20.46,0,0,1,17,5.74a10.53,10.53,0,0,1,3.81,1A12.91,12.91,0,0,1,23.4,8.49a1.38,1.38,0,0,1,.72.9,0.32,0.32,0,0,1-.21.21V9.66a0.62,0.62,0,0,1-.41.38,23.08,23.08,0,0,1-2.36.48,43.92,43.92,0,0,1-4.8.41A6.76,6.76,0,0,1,12.78,10,29.53,29.53,0,0,0,7.94,8.69a2.41,2.41,0,0,0-1.5-.07h0a0.73,0.73,0,0,1-.41,0A13,13,0,0,1,4.54,8C4.46,7.9,4.48,7.79,4.78,7.61Z" style="fill:#199fc4"/><g style="clip-path:url(#clip-path-2)"><path d="M23.11,10.43c0.08,0,.88-0.54.72-0.67a0.48,0.48,0,0,0-.57-0.14,0.75,0.75,0,0,1-.83.26,1.54,1.54,0,0,1-1.34-.46,5.66,5.66,0,0,1-.76-1.07,3.38,3.38,0,0,1-.17-0.63,0.1,0.1,0,0,0-.17,0,8.86,8.86,0,0,0,.51,1.58c0.24,0.55.35,0.2-1.27,0.6s-1,.6-2.33.58a32.8,32.8,0,0,1-5.49-1.07A21.7,21.7,0,0,0,8.8,8.94l7.64,2.52Z" style="fill:#0094be"/></g><path d="M20,8.18a3.88,3.88,0,0,0-1.18-.58,2.79,2.79,0,0,0-1-.09,3.25,3.25,0,0,0,.65.41,2.44,2.44,0,0,0,.47.54,2.3,2.3,0,0,0,.84-0.07A0.26,0.26,0,0,0,20,8.18Z" style="fill:#0094be"/><circle cx="22.51" cy="8.21" r="0.13" transform="translate(-0.24 0.69) rotate(-1.74)" style="fill:#0094be"/><path d="M24.94,25.35a1.38,1.38,0,0,0-.72-0.9,12.91,12.91,0,0,0-2.58-1.79,13.66,13.66,0,0,0-2.52-.82,12.45,12.45,0,0,0-2-.58,2.41,2.41,0,0,0-1.53,0,0.6,0.6,0,0,0-.1.31l0.25,0.23-0.29,0L13,21.21a1.21,1.21,0,0,0-1.44.71,2.46,2.46,0,0,0-.17.56l-0.11,0a18.86,18.86,0,0,0-2.7-.73,0.84,0.84,0,0,0-.64.77c-0.1.29-.18,0.5-0.23,0.63s-0.19,0-.36,0c-0.48-.25-1.45-0.77-2-1.06s-1.19-.68-1.42-0.25a3.57,3.57,0,0,0-.36,1.27,5.09,5.09,0,0,0,.15,2,0.92,0.92,0,0,0,.41.66,1.87,1.87,0,0,0,1.06-.28l2.1-.89h0a1.1,1.1,0,0,1,.58-0.07l0.53,0.58a1,1,0,0,0,1.06.47c0.39,0,1.23-.18,1.87-0.31l0.29,0.08c0.07,0.19.34,0.9,0.45,1.13a0.75,0.75,0,0,0,.84.37,21.81,21.81,0,0,0,2.2-.23,5.57,5.57,0,0,0,2.1.28c0.94,0,2.12-.1,3.07-0.2-0.66.27-1.39,0.57-1.46,0.62s0,0.23.11,0.35A2.8,2.8,0,0,0,20.38,27l0.81-.47L22,26.48A23.08,23.08,0,0,0,24.33,26a0.62,0.62,0,0,0,.41-0.38V25.56A0.32,0.32,0,0,0,24.94,25.35Z" style="fill:#0094be"/><path d="M5.6,23.57a5,5,0,0,1,1.55-.41c0.47,0,.25.06,0.91,0s3.07-.68,4.88-1a20.46,20.46,0,0,1,4.88-.47,10.53,10.53,0,0,1,3.81,1,12.91,12.91,0,0,1,2.58,1.79,1.38,1.38,0,0,1,.72.9,0.32,0.32,0,0,1-.21.21v0.05a0.62,0.62,0,0,1-.41.38,23.08,23.08,0,0,1-2.36.48,43.92,43.92,0,0,1-4.8.41A6.76,6.76,0,0,1,13.61,26a29.53,29.53,0,0,0-4.85-1.35,2.41,2.41,0,0,0-1.5-.07h0a0.73,0.73,0,0,1-.41,0A13,13,0,0,1,5.37,24C5.28,23.86,5.31,23.75,5.6,23.57Z" style="fill:#199fc4"/><g style="clip-path:url(#clip-path-3)"><path d="M23.93,26.38c0.08,0,.88-0.54.72-0.67a0.48,0.48,0,0,0-.57-0.14,0.75,0.75,0,0,1-.83.26,1.54,1.54,0,0,1-1.34-.46,5.66,5.66,0,0,1-.76-1.07A3.38,3.38,0,0,1,21,23.67a0.1,0.1,0,0,0-.17,0,8.86,8.86,0,0,0,.51,1.58c0.24,0.55.35,0.2-1.27,0.6s-1,.6-2.33.58a32.8,32.8,0,0,1-5.49-1.07,21.7,21.7,0,0,0-2.61-.44l7.64,2.52Z" style="fill:#0094be"/></g><path d="M20.84,24.14a3.88,3.88,0,0,0-1.18-.58,2.79,2.79,0,0,0-1-.09,3.25,3.25,0,0,0,.65.41,2.44,2.44,0,0,0,.47.54,2.3,2.3,0,0,0,.84-0.07A0.26,0.26,0,0,0,20.84,24.14Z" style="fill:#0094be"/><circle cx="23.33" cy="24.17" r="0.13" transform="translate(-0.72 0.72) rotate(-1.74)" style="fill:#0094be"/><path d="M34.63,34.6a1.38,1.38,0,0,0-.72-0.9,12.91,12.91,0,0,0-2.58-1.79,13.66,13.66,0,0,0-2.52-.82,12.45,12.45,0,0,0-2-.58,2.41,2.41,0,0,0-1.53,0,0.6,0.6,0,0,0-.1.31L25.41,31l-0.29,0-2.48-.57a1.21,1.21,0,0,0-1.44.71,2.46,2.46,0,0,0-.17.56l-0.11,0a18.86,18.86,0,0,0-2.7-.73,0.84,0.84,0,0,0-.64.77c-0.1.29-.18,0.5-0.23,0.63s-0.19,0-.36,0c-0.48-.25-1.45-0.77-2-1.06s-1.19-.68-1.42-0.25a3.57,3.57,0,0,0-.36,1.27,5.09,5.09,0,0,0,.15,2,0.92,0.92,0,0,0,.41.66,1.87,1.87,0,0,0,1.06-.28l2.1-.89h0a1.1,1.1,0,0,1,.58-0.07l0.53,0.58a1,1,0,0,0,1.06.47c0.39,0,1.23-.18,1.87-0.31l0.29,0.08c0.07,0.19.34,0.9,0.45,1.13a0.75,0.75,0,0,0,.84.37,21.81,21.81,0,0,0,2.2-.23,5.57,5.57,0,0,0,2.1.28c0.94,0,2.12-.1,3.07-0.2-0.66.27-1.39,0.57-1.46,0.62s0,0.23.11,0.35a2.8,2.8,0,0,0,1.49-.61l0.81-.47,0.79-.11A23.08,23.08,0,0,0,34,35.24a0.62,0.62,0,0,0,.41-0.38V34.8A0.32,0.32,0,0,0,34.63,34.6Z" style="fill:#0094be"/><path d="M15.28,32.81a5,5,0,0,1,1.55-.41c0.47,0,.25.06,0.91,0s3.07-.68,4.88-1a20.46,20.46,0,0,1,4.88-.47,10.53,10.53,0,0,1,3.81,1,12.91,12.91,0,0,1,2.58,1.79,1.38,1.38,0,0,1,.72.9,0.32,0.32,0,0,1-.21.21v0.05a0.62,0.62,0,0,1-.41.38,23.08,23.08,0,0,1-2.36.48,43.92,43.92,0,0,1-4.8.41,6.76,6.76,0,0,1-3.57-.88,29.53,29.53,0,0,0-4.85-1.35,2.41,2.41,0,0,0-1.5-.07h0a0.73,0.73,0,0,1-.41,0,13,13,0,0,1-1.47-.58C15,33.1,15,33,15.28,32.81Z" style="fill:#199fc4"/><g style="clip-path:url(#clip-path-4)"><path d="M33.61,35.63c0.08,0,.88-0.54.72-0.67a0.48,0.48,0,0,0-.57-0.14,0.75,0.75,0,0,1-.83.26,1.54,1.54,0,0,1-1.34-.46,5.66,5.66,0,0,1-.76-1.07,3.38,3.38,0,0,1-.17-0.63,0.1,0.1,0,0,0-.17,0A8.86,8.86,0,0,0,31,34.47c0.24,0.55.35,0.2-1.27,0.6s-1,.6-2.33.58a32.8,32.8,0,0,1-5.49-1.07,21.7,21.7,0,0,0-2.61-.44l7.64,2.52Z" style="fill:#0094be"/></g><path d="M30.53,33.38a3.88,3.88,0,0,0-1.18-.58,2.79,2.79,0,0,0-1-.09,3.25,3.25,0,0,0,.65.41,2.44,2.44,0,0,0,.47.54,2.3,2.3,0,0,0,.84-0.07A0.26,0.26,0,0,0,30.53,33.38Z" style="fill:#0094be"/><circle cx="33.02" cy="33.41" r="0.13" transform="translate(-1 1.02) rotate(-1.74)" style="fill:#0094be"/></svg>