<svg id="pacific" xmlns="http://www.w3.org/2000/svg" xmlns:xlink="http://www.w3.org/1999/xlink" viewBox="0 0 60 60"><defs><clipPath id="clip-path"><path d="M38.58,42.38c-0.74-2.62-1.37-4.65-1.37-4.65a43.72,43.72,0,0,0-2-7.16c-0.88-2.78-1.77-3.23-2.45-4.4s-1.41-1.22-1.87-1-1.54,1.46-3.33,3.93-2.76,8.77-3.28,9.76A21.42,21.42,0,0,0,23,45.52c0,1.45-.21,4.16-0.08,6.64,0,0.63,17.52.26,17.52,0.26A85.66,85.66,0,0,0,38.58,42.38Z" style="fill:#069b97"/></clipPath></defs><title>wwf</title><path d="M54.64,37.17a3.92,3.92,0,0,0-.37-1.69,9.26,9.26,0,0,1-2.14-2.36A3.38,3.38,0,0,0,50.89,32S49.27,30.69,49,30.47A3,3,0,0,0,48.24,30L45,28.41l-2.5-2.06A23.63,23.63,0,0,0,39,25.68c-1.25-.07-1.25-0.81-2.43-0.15s-2.8,0-4.86.74-1.91,2-3.83,2.8a21.41,21.41,0,0,1-4.42,1.18s-2.21.74-4.56,1.55-3.68.88-4.79,2.28a6.57,6.57,0,0,1-1.84,1.77l-0.74,1.33H54.64Z" style="fill:#eaebeb"/><path d="M54.94,37.17a33.13,33.13,0,0,0-2.38-2.71A7,7,0,0,0,50,33.78a8.22,8.22,0,0,1-3,.1,18.4,18.4,0,0,0-2.67-.39s-3.12.29-3.71,0.29a18.1,18.1,0,0,0-3.27,1.36l-0.74,2H54.94Z" style="fill:#d5d7d8"/><path d="M33.66,37.17A8.19,8.19,0,0,1,32.26,35c0-.52-1.47-0.66-1.47-0.66l-0.59-.74-2.72-.29S20.7,31.2,20.18,31.2a18.81,18.81,0,0,1-2.72-.15c-0.81-.15-4.12,1.1-4.12,1.1l-2.43.07a19.2,19.2,0,0,0-2.43,2.5,1.85,1.85,0,0,1-.74.15,4.52,4.52,0,0,0-2,.88,12.38,12.38,0,0,1-2.36.66C3,36.58,2.59,36.8,2.59,36.8l-0.37.37H33.66Z" style="fill:#d5d7d8"/><polygon points="29.83 33.87 29.84 33.62 29.85 33.44 29.88 32.33 29.91 31.26 29.92 31.05 29.94 31.02 29.96 31.05 29.96 31.14 29.97 32.52 29.93 33.26 29.94 33.91 29.84 33.91 29.81 33.9 29.83 33.87" style="fill:#d5d7d8"/><polygon points="29.91 32.86 29.81 32.9 29.69 32.93 29.61 32.92 29.59 32.95 29.52 32.95 29.43 32.93 29.42 32.97 29.47 33.01 29.53 33.05 29.58 33.08 29.58 33.13 29.65 33.13 29.64 33.15 29.59 33.17 29.52 33.15 29.48 33.16 29.51 33.21 29.56 33.25 29.69 33.22 29.77 33.22 29.89 33.14 29.91 32.86" style="fill:#d5d7d8"/><polygon points="29.89 33.23 29.87 33.17 29.82 33.24 29.77 33.31 29.73 33.31 29.64 33.33 29.6 33.34 29.62 33.37 29.65 33.38 29.76 33.37 29.83 33.39 29.88 33.36 29.89 33.23" style="fill:#d5d7d8"/><polygon points="29.87 33.48 29.78 33.52 29.73 33.52 29.73 33.55 29.81 33.55 29.86 33.54 29.87 33.48" style="fill:#d5d7d8"/><polygon points="29.91 33.15 29.96 33.28 30.04 33.31 30.09 33.38 30.13 33.42 30.17 33.48 30.26 33.48 30.24 33.51 30.16 33.52 30.1 33.54 30.03 33.46 29.96 33.38 29.88 33.36 29.91 33.15" style="fill:#d5d7d8"/><polygon points="29.92 32.91 30.02 32.93 30.13 32.93 30.2 32.97 30.25 32.97 30.31 32.95 30.32 32.99 30.3 33.03 30.15 33.04 30.12 33.1 30.03 33.1 29.97 33.11 29.88 33.11 29.89 33.09 29.92 32.91" style="fill:#d5d7d8"/><path d="M29.84,33L30,33.15h0.08l0.09,0H30.3v0h0v0.07H30.17s0,0,0,0l-0.06,0,0-.07-0.1,0Z" style="fill:#d5d7d8"/><polygon points="29.94 32.2 29.99 32.24 30.07 32.23 30.13 32.21 30.18 32.23 30.23 32.21 30.25 32.22 30.25 32.23 30.2 32.26 30.13 32.3 30.1 32.3 30.1 32.33 30.14 32.34 30.22 32.31 30.27 32.31 30.28 32.3 30.29 32.35 30.3 32.38 30.31 32.4 30.3 32.43 30.25 32.43 30.23 32.48 30.16 32.52 30.09 32.54 30.05 32.52 29.98 32.55 29.93 32.54 29.94 32.2" style="fill:#d5d7d8"/><polygon points="29.93 32.57 29.96 32.52 30.06 32.56 30.12 32.57 30.19 32.55 30.23 32.56 30.25 32.59 30.28 32.59 30.28 32.61 30.23 32.63 30.18 32.67 30.18 32.72 30.21 32.72 30.25 32.74 30.3 32.74 30.33 32.73 30.33 32.77 30.29 32.78 30.17 32.84 30.08 32.83 30.01 32.83 29.94 32.78 29.93 32.57" style="fill:#d5d7d8"/><polygon points="29.92 32.86 29.94 32.76 30.02 32.81 30.08 32.83 30.12 32.85 30.17 32.9 30.21 32.89 30.22 32.91 30.17 32.93 30.09 32.96 29.94 32.94 29.92 32.86" style="fill:#d5d7d8"/><polygon points="29.93 32.01 29.84 32.04 29.78 32.03 29.73 32.05 29.61 32.03 29.59 32.03 29.59 32.04 29.6 32.06 29.68 32.09 29.69 32.12 29.64 32.13 29.59 32.14 29.57 32.13 29.57 32.16 29.54 32.17 29.53 32.2 29.56 32.25 29.6 32.25 29.61 32.3 29.65 32.34 29.75 32.33 29.78 32.35 29.8 32.37 29.83 32.37 29.7 32.41 29.64 32.4 29.57 32.36 29.55 32.38 29.58 32.43 29.65 32.46 29.68 32.52 29.75 32.52 29.84 32.52 29.9 32.54 29.93 32.52 29.93 32.01" style="fill:#d5d7d8"/><polygon points="29.91 32.56 29.9 32.5 29.76 32.54 29.65 32.55 29.57 32.54 29.52 32.52 29.51 32.54 29.54 32.58 29.54 32.61 29.51 32.62 29.54 32.64 29.62 32.65 29.72 32.65 29.77 32.64 29.84 32.61 29.91 32.62 29.91 32.56" style="fill:#d5d7d8"/><polygon points="29.94 32.63 29.91 32.59 29.82 32.61 29.76 32.69 29.68 32.7 29.61 32.71 29.55 32.74 29.52 32.72 29.45 32.71 29.44 32.73 29.47 32.77 29.53 32.83 29.6 32.84 29.67 32.87 29.77 32.87 29.84 32.87 29.91 32.84 29.94 32.63" style="fill:#d5d7d8"/><polygon points="29.94 31.75 30.03 31.74 30.07 31.76 30.11 31.73 30.18 31.72 30.18 31.75 30.14 31.8 30.03 31.84 29.94 31.85 29.94 31.75" style="fill:#d5d7d8"/><polygon points="29.95 31.07 29.94 31.02 29.97 31.01 29.97 31.05 29.98 31.11 30.02 31.12 30.01 31.15 30.05 31.15 30.05 31.18 30.01 31.22 30.02 31.28 30.08 31.27 30.11 31.25 30.13 31.27 30.11 31.31 30.05 31.33 30.04 31.39 30 31.42 29.95 31.47 29.92 31.5 29.89 31.45 29.83 31.43 29.81 31.39 29.77 31.38 29.75 31.35 29.77 31.32 29.81 31.32 29.84 31.33 29.86 31.31 29.84 31.28 29.84 31.23 29.86 31.22 29.81 31.18 29.82 31.15 29.85 31.16 29.91 31.17 29.9 31.11 29.88 31.08 29.9 31.06 29.95 31.07" style="fill:#d5d7d8"/><polygon points="30.03 31.78 30.04 31.72 30.09 31.69 30.13 31.64 30.15 31.63 30.15 31.59 30.12 31.59 30.09 31.6 30.01 31.61 29.98 31.59 30 31.57 30.07 31.55 30.12 31.53 30.14 31.5 30.13 31.45 30.15 31.42 30.14 31.39 30.11 31.39 30.09 31.42 30.05 31.41 29.96 31.4 29.93 31.43 29.94 31.81 30.03 31.78" style="fill:#d5d7d8"/><path d="M30,31.45l-0.08,0-0.05,0,0,0,0,0,0,0,0,0,0,0.05h0v0.06l-0.06,0,0,0,0,0v0l0.05,0,0,0,0,0,0.1,0Z" style="fill:#d5d7d8"/><path d="M30,31.78v-0.1l-0.13,0-0.07,0H29.65l0,0,0,0v0H29.61l0,0a0,0,0,0,0,0,0l0,0,0,0,0.05,0H29.64v0l0.06,0h0.1l0.07,0,0.07,0Z" style="fill:#d5d7d8"/><path d="M29.92,31.85l0.08,0,0.08,0.05h0.11l0,0a0.06,0.06,0,0,1,0,0H30.08l0,0,0,0,0.06,0h0l0,0,0,0-0.09,0,0,0h0.05l0.07,0,0,0h0l-0.05,0-0.06,0-0.09.05-0.11.07Z" style="fill:#d5d7d8"/><polygon points="31.65 34.65 31.65 34.44 31.64 34.28 31.6 33.31 31.57 32.39 31.56 32.21 31.54 32.18 31.52 32.21 31.52 32.29 31.5 33.48 31.55 34.12 31.54 34.68 31.65 34.69 31.68 34.67 31.65 34.65" style="fill:#d5d7d8"/><polygon points="31.58 33.78 31.68 33.86 31.8 33.86 31.89 33.83 31.92 33.85 31.99 33.85 32.09 33.84 32.09 33.87 32.04 33.91 31.98 33.94 31.93 33.96 31.93 34.01 31.85 34.01 31.86 34.03 31.92 34.04 31.99 34.03 32.03 34.03 32 34.08 31.95 34.11 31.8 34.08 31.73 34.08 31.59 34.02 31.58 33.78" style="fill:#d5d7d8"/><polygon points="31.59 34.1 31.62 34.05 31.67 34.1 31.72 34.17 31.77 34.17 31.87 34.18 31.9 34.19 31.89 34.22 31.85 34.22 31.74 34.22 31.66 34.23 31.6 34.2 31.59 34.1" style="fill:#d5d7d8"/><polygon points="31.61 34.31 31.71 34.35 31.76 34.35 31.76 34.37 31.68 34.37 31.62 34.36 31.61 34.31" style="fill:#d5d7d8"/><polygon points="31.57 34.02 31.52 34.14 31.43 34.16 31.38 34.23 31.34 34.26 31.29 34.31 31.2 34.31 31.22 34.34 31.3 34.35 31.37 34.36 31.44 34.3 31.52 34.22 31.6 34.2 31.57 34.02" style="fill:#d5d7d8"/><polygon points="31.56 33.82 31.46 33.84 31.34 33.83 31.27 33.87 31.2 33.87 31.14 33.86 31.13 33.89 31.16 33.92 31.31 33.93 31.35 33.99 31.44 33.98 31.51 33.99 31.6 33.99 31.59 33.97 31.56 33.82" style="fill:#d5d7d8"/><path d="M31.64,33.92L31.48,34H31.4l-0.1,0H31.16v0H31.2v0.06h0.08s0,0,.05,0l0.06,0,0.05-.06,0.11,0Z" style="fill:#d5d7d8"/><polygon points="31.54 33.2 31.49 33.24 31.4 33.23 31.34 33.21 31.28 33.23 31.23 33.21 31.21 33.22 31.21 33.23 31.26 33.25 31.33 33.29 31.37 33.29 31.36 33.32 31.32 33.33 31.24 33.3 31.19 33.3 31.17 33.29 31.17 33.34 31.16 33.36 31.14 33.38 31.16 33.4 31.21 33.4 31.23 33.45 31.3 33.48 31.37 33.5 31.42 33.48 31.49 33.5 31.55 33.49 31.54 33.2" style="fill:#d5d7d8"/><polygon points="31.55 33.52 31.52 33.48 31.41 33.52 31.35 33.53 31.27 33.51 31.22 33.52 31.21 33.54 31.17 33.54 31.17 33.56 31.22 33.58 31.28 33.61 31.29 33.66 31.25 33.66 31.2 33.67 31.16 33.67 31.12 33.66 31.12 33.69 31.17 33.71 31.3 33.76 31.39 33.75 31.46 33.75 31.54 33.71 31.55 33.52" style="fill:#d5d7d8"/><polygon points="31.56 33.77 31.54 33.69 31.45 33.73 31.39 33.75 31.34 33.77 31.3 33.81 31.25 33.8 31.24 33.82 31.29 33.84 31.38 33.86 31.54 33.85 31.56 33.77" style="fill:#d5d7d8"/><polygon points="31.55 33.04 31.64 33.06 31.71 33.06 31.77 33.07 31.89 33.06 31.91 33.06 31.92 33.07 31.9 33.09 31.82 33.11 31.81 33.13 31.86 33.15 31.91 33.15 31.94 33.14 31.94 33.17 31.97 33.18 31.98 33.2 31.95 33.25 31.91 33.25 31.89 33.29 31.85 33.32 31.74 33.28 31.63 33.3 31.69 33.35 31.66 33.35 31.8 33.39 31.87 33.38 31.93 33.35 31.96 33.37 31.92 33.4 31.85 33.43 31.82 33.48 31.75 33.48 31.65 33.48 31.59 33.5 31.55 33.48 31.55 33.04" style="fill:#d5d7d8"/><polygon points="31.57 33.51 31.58 33.47 31.73 33.5 31.85 33.5 31.94 33.49 31.99 33.48 32.01 33.5 31.97 33.53 31.97 33.55 32 33.57 31.97 33.59 31.88 33.59 31.77 33.59 31.72 33.58 31.64 33.56 31.57 33.57 31.57 33.51" style="fill:#d5d7d8"/><polygon points="31.54 33.57 31.57 33.54 31.67 33.56 31.73 33.63 31.82 33.63 31.89 33.64 31.96 33.67 32 33.65 32.06 33.65 32.07 33.66 32.04 33.7 31.98 33.75 31.9 33.76 31.83 33.78 31.73 33.78 31.64 33.78 31.57 33.75 31.54 33.57" style="fill:#d5d7d8"/><polygon points="31.54 32.82 31.45 32.81 31.41 32.82 31.36 32.8 31.28 32.79 31.28 32.82 31.32 32.85 31.44 32.89 31.54 32.9 31.54 32.82" style="fill:#d5d7d8"/><polygon points="31.53 32.22 31.54 32.18 31.51 32.18 31.5 32.21 31.49 32.27 31.45 32.27 31.47 32.3 31.43 32.29 31.42 32.33 31.47 32.36 31.46 32.41 31.39 32.4 31.36 32.38 31.34 32.4 31.36 32.43 31.42 32.45 31.43 32.5 31.47 32.53 31.53 32.57 31.56 32.6 31.59 32.55 31.66 32.54 31.68 32.51 31.72 32.5 31.74 32.47 31.73 32.44 31.68 32.45 31.64 32.45 31.62 32.44 31.65 32.41 31.64 32.37 31.63 32.36 31.67 32.32 31.67 32.3 31.63 32.3 31.57 32.31 31.58 32.26 31.61 32.24 31.58 32.22 31.53 32.22" style="fill:#d5d7d8"/><polygon points="31.45 32.84 31.43 32.79 31.38 32.76 31.34 32.72 31.31 32.71 31.31 32.67 31.34 32.67 31.38 32.69 31.46 32.7 31.5 32.68 31.48 32.65 31.4 32.64 31.35 32.63 31.33 32.6 31.33 32.56 31.31 32.53 31.32 32.5 31.35 32.51 31.38 32.53 31.42 32.52 31.52 32.51 31.55 32.54 31.54 32.87 31.45 32.84" style="fill:#d5d7d8"/><path d="M31.51,32.56l0.08,0,0.06,0,0,0,0,0,0,0,0,0,0,0h0V32.7H31.7l0,0,0,0v0l-0.06,0-0.05,0,0,0h-0.1Z" style="fill:#d5d7d8"/><path d="M31.53,32.84V32.76l0.14,0h0.17l0,0,0,0v0h0.06l0,0a0,0,0,0,1,0,0l0,0,0,0-0.06,0h0.12v0H31.63l-0.07,0Z" style="fill:#d5d7d8"/><path d="M31.56,32.9l-0.08,0-0.08,0H31.28l0,0a0,0,0,0,0,0,0h0.11l0.05,0h0l-0.07,0H31.28l0,0,0.09,0,0,0h0l-0.08,0-0.08,0,0,0h0l0.06,0,0.06,0,0.09,0,0.12,0.06Z" style="fill:#d5d7d8"/><path d="M58.47,37.17l-1.82-1.93A22.29,22.29,0,0,0,54,33.36c-0.59,0-1.88,0-1.88,0l-1.88-.58-2.58.12-3.57-.58-1.68.46s-1.19,2.42-2,2.89-1.39.27-2.08,0.92a7,7,0,0,0-.49.58H58.47Z" style="fill:#bfc3c4"/><path d="M26.39,51.12A4.67,4.67,0,0,1,24.31,51a7.71,7.71,0,0,0-4.67.35,11.07,11.07,0,0,0-1.2.71l8,0.34V51.12Z" style="fill:#eaebeb"/><path d="M42.09,51.68c-1.41.19-2.47-.91-4.08-0.55s-0.2-.87-0.54-1a0.33,0.33,0,0,0-.42.09v1.5a10.4,10.4,0,0,1,1.44.56c0.35,0.22.06,0.63,2.21,0.37s3.77,0.36,3.81.09S43.84,51.45,42.09,51.68Z" style="fill:#eaebeb"/><path d="M24,39.38a1.59,1.59,0,0,1,.66,1.33,39,39,0,0,0-1.33,5.23c0,1.25-.62.86-0.9,1.29s-0.12,1.09-1.29,1.37-3.12,1.25-4.8.94-3.12,0-2.73-1.83,2.5-4.41,5.27-6.05A22.66,22.66,0,0,1,24,39.38Z" style="fill:#069b97"/><path d="M38.58,42.38c-0.74-2.62-1.37-4.65-1.37-4.65a43.72,43.72,0,0,0-2-7.16c-0.88-2.78-1.77-3.23-2.45-4.4s-1.41-1.22-1.87-1-1.54,1.46-3.33,3.93-2.76,8.77-3.28,9.76A21.42,21.42,0,0,0,23,45.52c0,1.45-.21,4.16-0.08,6.64,0,0.63,17.52.26,17.52,0.26A85.66,85.66,0,0,0,38.58,42.38Z" style="fill:#069b97"/><g style="clip-path:url(#clip-path)"><path d="M35.77,33a1,1,0,0,0-.94-0.39,4.05,4.05,0,0,0-.12,3c0.43,0.7,1.13,2.93,1.48,2.19s0.08-2.93,0-3.75A1.76,1.76,0,0,0,35.77,33Z" style="fill:#6ac3c1"/><path d="M22.27,54.43S21.68,33.6,21.8,33.52s7.53-7.69,7.53-7.69,1.13-.82,1.87-0.12S34,32.7,33.82,35,33,39.42,31.6,40.74c0,0,0-1.41-.86-1.64s-2.34-.23-2.5,1.21,1.52,0.31-.2,2.85-2,8.12-2,11.24" style="fill:#6ac3c1"/></g><path d="M43.52,52.64A30.06,30.06,0,0,0,35.27,52a34.3,34.3,0,0,1-12.36-.31c-0.15,0-5,.73-4.27.76a10.56,10.56,0,0,1,3.72.52c1.86,0.76,5.17,1,10.74-.07a17.29,17.29,0,0,1,7.3.34A3.52,3.52,0,0,0,43.52,52.64Z" style="fill:#eaebeb"/><path d="M31.28,40.3c-0.46-.42-1.75-0.67-2-0.17a3.42,3.42,0,0,0-.29,2c0.21,0.33,2.63,6.84,3,7.3s1.34-1,.75-2.42a28,28,0,0,1-1.46-5.51l0.13-.63Z" style="fill:#069b97"/><path d="M16.36,52.18A6.34,6.34,0,0,1,19.19,52a6.23,6.23,0,0,0,3.07-.64,0.51,0.51,0,0,1,.42,0v0.8s-1.08.19-1.44,0.31a26.84,26.84,0,0,1-3.07,0c-2.16,0-2.45.31-2.5,0.16A1.65,1.65,0,0,1,16.36,52.18Z" style="fill:#eaebeb"/></svg>