<svg id="human-grey" xmlns="http://www.w3.org/2000/svg" viewBox="0 0 60 60"><title>wwf</title><rect x="27.97" y="18.79" width="1.12" height="16.55" style="fill:#b5b9ba"/><rect x="28.87" y="23.46" width="10.26" height="0.53" style="fill:#b5b9ba"/><rect x="28.19" y="21.94" width="10.26" height="0.53" transform="matrix(0.96, 0.29, -0.29, 0.96, 8.01, -8.82)" style="fill:#b5b9ba"/><rect x="41.74" y="28.89" width="4.85" height="2.74" style="fill:#b5b9ba"/><rect x="35.89" y="28.89" width="4.85" height="2.74" style="fill:#b5b9ba"/><rect x="30.04" y="28.89" width="4.85" height="2.74" style="fill:#b5b9ba"/><rect x="22.12" y="28.89" width="4.85" height="2.74" style="fill:#b5b9ba"/><rect x="35.89" y="25.15" width="4.85" height="2.74" style="fill:#b5b9ba"/><rect x="30.04" y="25.15" width="4.85" height="2.74" style="fill:#b5b9ba"/><rect x="22.12" y="25.15" width="4.85" height="2.74" style="fill:#b5b9ba"/><polygon points="9 36.44 10.42 36.44 10.42 32.06 9.6 32.06 9 36.44" style="fill:#b5b9ba"/><path d="M20.88,21.47V19H20.62v2.42H19.11V19.2a0.85,0.85,0,0,0-.17-1.65v-2H18.69v2a0.85,0.85,0,0,0-.17,1.65v2.27H15.58v1H16v5.82H13.23l-2.7,9.05L21,37.87V24.94l1.19-2.45h0.36v-1H20.88ZM20.32,24.2H17.18V22.7H21Z" style="fill:#b5b9ba"/><polygon points="50.15 32.28 49.71 32.28 49.71 32.47 49.18 32.47 49.18 32.28 48.7 32.28 48.37 33.86 50.15 33.86 50.15 32.28" style="fill:#b5b9ba"/><path d="M49.71,30.18a0.53,0.53,0,0,1-.53,0v2.1h0.53v-2.1Z" style="fill:#b5b9ba"/><rect x="49.18" y="32.28" width="0.53" height="0.19" style="fill:#b5b9ba"/><path d="M49.71,29.81v0.37a0.58,0.58,0,1,0-.53,0V29.81h0.53Z" style="fill:#b5b9ba"/><path d="M49.71,30.18V29.81H49.18v0.37A0.53,0.53,0,0,0,49.71,30.18Z" style="fill:#b5b9ba"/><rect x="41.74" y="32.63" width="4.85" height="1.23" style="fill:#b5b9ba"/><polygon points="40.74 33.86 40.74 32.63 35.89 32.63 35.89 35.34 36.88 35.34 37.53 34.32 37.83 33.86 40.74 33.86" style="fill:#b5b9ba"/><rect x="30.04" y="32.63" width="4.85" height="2.71" style="fill:#b5b9ba"/><rect x="22.12" y="32.63" width="4.85" height="2.71" style="fill:#b5b9ba"/><path d="M9,36.35V40s4.41,2.46,6.71,2.46H49.28a1,1,0,0,0,0-1.84h-1L51,34.86H38.38l-1,1.49H9Z" style="fill:#b5b9ba"/></svg>