<svg id="arctic-white" xmlns="http://www.w3.org/2000/svg" xmlns:xlink="http://www.w3.org/1999/xlink" viewBox="0 0 60 60"><defs><clipPath id="clip-path"><polygon points="23.88 52.7 24.27 51.66 8.69 48.86 6.84 48.59 8.61 49.07 23.88 52.7" style="fill:#dfe1e1"/></clipPath><clipPath id="clip-path-2"><path d="M25.86,48.54a3.57,3.57,0,0,0-2.46,2,8.57,8.57,0,0,0,0,2c0,0.76.63,1.72,2.28,1.77S29.28,55,32,55.23s8.47-1.26,11-3.67,5.05-5.28,5.56-9.78,0.14-7.19-3-10.05c-2.7-2.47-3.53-1.8-3.75-2.21A33.91,33.91,0,0,1,41.06,26a5.31,5.31,0,0,0-1.18-2.6,0.19,0.19,0,0,0-.29.07,2.58,2.58,0,0,1-.69,1.38,4.73,4.73,0,0,0-1,3.06,6,6,0,0,0,.42,1.47A4,4,0,0,0,37.53,32a5.84,5.84,0,0,0,1,2.38,5.52,5.52,0,0,1,.07.9A0.56,0.56,0,0,0,39,35.15a6.08,6.08,0,0,0,1.43-2.22c0.8-1.83.84-1.25,0.84-1.25s1.2,1.76.5,3.12S38.25,40.73,35.62,43a34.3,34.3,0,0,1-5.9,4.34A12.93,12.93,0,0,1,25.86,48.54Z" style="fill:#f4f5f5"/></clipPath></defs><title>wwf</title><polygon points="22.45 37 14.65 37 14.48 37.93 13.92 38.51 12.66 37 7.06 37 7.1 38.17 8.2 38.49 8.8 41.86 9.26 42.14 10.21 44.87 11.48 44.84 12.6 46.2 13.4 45.81 13.76 47.52 14.76 47.19 16.35 44.27 18.26 43.57 18.92 41.96 19.12 40.11 20.64 39.12 22.03 38.95 22.45 37" style="fill:#00a9c5;opacity:0.5"/><polygon points="0.88 37 1.17 37.56 1.74 37.68 2.39 38.3 3.1 38.22 6.33 38.36 8.38 37.98 8.32 37.74 9.99 37 0.88 37" style="fill:#00a9c5"/><polygon points="33.95 37 34.12 37.76 34.68 37.76 35.08 38.03 36.3 37.99 38.19 39.71 38.98 39.55 39.84 39.78 41.36 39.05 42.65 39.32 45.17 39.38 46.29 37 33.95 37" style="fill:#00a9c5;opacity:0.5"/><polygon points="38.09 37 38.62 37.45 39.67 37.49 40.22 37.92 40.96 38 42.95 41.75 43.81 41.24 44.44 43.39 45.41 43.39 45.57 43.85 46.66 45.73 47.52 45.26 49.01 42.65 50.06 42.68 52.25 38.43 53.38 38.5 54.52 37.92 56.16 37.76 56.84 37 38.09 37" style="fill:#00a9c5;opacity:0.8"/><polygon points="49.78 37 49.32 36.17 48.39 36.06 47.36 35.45 42 31.08 40.5 31.02 39.88 30.86 39.26 30.58 36.22 28.42 33.94 27.97 32.76 27.53 31.05 28.73 30.17 28.9 26.8 31.36 25.4 31.96 24.93 32.4 24.16 32.4 23.48 32.73 22.19 33.11 21.11 32.83 20.28 32.27 19.09 32.77 18.26 32.6 14.95 34.13 13.76 34.07 10.45 35.38 7.5 37 49.78 37" style="fill:#00a9c5"/><path d="M21.47,36.25L21,36.15l-0.56-.61-0.85,0-1.1-1.1-0.27.43-0.81-2-0.64.38-0.1-.94-0.49-.47,0.16-1.18-1.25-2.12-0.49.06-2,1.95-1,0L8.83,31.67,8.33,32.73l0.46,0.69L7.58,34.53l0.16,1L7.06,37h5.6l-0.45-.91-0.33-.33L12,35.89l0.2-.47-0.11-.86-0.25-.13-0.4-1L11.89,33l1.81,0L14,33.65l0,0.71,1.22,0.8,0.06,0.56L14.65,37h7.8Z" style="fill:#009cb7"/><polygon points="0.9 37 10.01 37 12.01 36.51 11.94 36.05 9.35 36.24 9.45 35.93 9.21 35.69 6.07 36.57 6.12 36.3 5.31 35.74 4.41 35.74 1.61 36.46 1.42 36.79 0.88 36.86 0.9 37" style="fill:#02859b"/><polygon points="41.69 35.27 43.04 35.13 43.68 34.93 44.29 35.34 45.72 36.36 45.62 36.79 45.37 37 33.95 37 34.48 36.28 34.77 36.3 35.37 35.88 37.15 35.2 37.46 35.71 39.86 34.44 40.14 34.82 40.04 35.25 41.53 34.98 41.69 35.27" style="fill:#009cb7"/><path d="M56.94,35.63H56.22l-0.47-1H53.09L52.52,35H51.47l-0.1-.12-0.68,0-0.25.29-0.23,0L49,34.13l0.29-.82-0.1-.2-3-.14-0.53-.25-2.75.47-0.68-.06,0,0.29,1.37,1.29,0,0.45-0.31,1.19H42.19a0.55,0.55,0,0,0-.16.23H41.88l-0.33.2-2-.47-0.66.49H38.19l-0.1.2H56.84l0.39-.25Z" style="fill:#02859b"/><polygon points="36.63 37 36.5 36.56 34.6 36.34 34.38 36.52 30.76 36.69 30.59 37 36.63 37" style="fill:#02859b"/><polygon points="30.59 37 31.12 37.53 32.22 37.93 33.1 39.47 33.59 39.12 33.76 39.87 36.06 38.37 36.32 37.53 36.63 37 30.59 37" style="fill:#00a9c5"/><polygon points="23.88 52.7 24.27 51.66 8.69 48.86 6.84 48.59 8.61 49.07 23.88 52.7" style="fill:#dfe1e1"/><g style="clip-path:url(#clip-path)"><line x1="20.7" y1="52.78" x2="31.36" y2="52.35" style="fill:none;stroke:#f4f5f5;stroke-miterlimit:10"/><line x1="18.03" y1="52.14" x2="28.69" y2="51.71" style="fill:none;stroke:#f4f5f5;stroke-miterlimit:10"/><line x1="15.35" y1="51.51" x2="26.01" y2="51.08" style="fill:none;stroke:#f4f5f5;stroke-miterlimit:10"/><line x1="12.68" y1="50.87" x2="23.34" y2="50.44" style="fill:none;stroke:#f4f5f5;stroke-miterlimit:10"/><line x1="10.01" y1="50.24" x2="20.67" y2="49.81" style="fill:none;stroke:#f4f5f5;stroke-miterlimit:10"/><line x1="7.34" y1="49.6" x2="18" y2="49.17" style="fill:none;stroke:#f4f5f5;stroke-miterlimit:10"/><line x1="4.67" y1="48.97" x2="15.33" y2="48.53" style="fill:none;stroke:#f4f5f5;stroke-miterlimit:10"/><line x1="1.99" y1="48.33" x2="12.65" y2="47.9" style="fill:none;stroke:#f4f5f5;stroke-miterlimit:10"/></g><path d="M25.86,48.54a3.57,3.57,0,0,0-2.46,2,8.57,8.57,0,0,0,0,2c0,0.76.63,1.72,2.28,1.77S29.28,55,32,55.23s8.47-1.26,11-3.67,5.05-5.28,5.56-9.78,0.14-7.19-3-10.05c-2.7-2.47-3.53-1.8-3.75-2.21A33.91,33.91,0,0,1,41.06,26a5.31,5.31,0,0,0-1.18-2.6,0.19,0.19,0,0,0-.29.07,2.58,2.58,0,0,1-.69,1.38,4.73,4.73,0,0,0-1,3.06,6,6,0,0,0,.42,1.47A4,4,0,0,0,37.53,32a5.84,5.84,0,0,0,1,2.38,5.52,5.52,0,0,1,.07.9A0.56,0.56,0,0,0,39,35.15a6.08,6.08,0,0,0,1.43-2.22c0.8-1.83.84-1.25,0.84-1.25s1.2,1.76.5,3.12S38.25,40.73,35.62,43a34.3,34.3,0,0,1-5.9,4.34A12.93,12.93,0,0,1,25.86,48.54Z" style="fill:#f4f5f5"/><g style="clip-path:url(#clip-path-2)"><path d="M23.66,53.42s3.53-1.16,5.2-.64,4.07-.34,8.22-2.3,5.41-4.57,6.75-6.56,4.71-4.1,4.51-6.58a8.78,8.78,0,0,0-.66-3.27s3.08,4.74,1,9.19S45,51,41.39,53s-8.18,3.18-10.28,2.58a20.55,20.55,0,0,0-5.38-1A2.5,2.5,0,0,1,23.66,53.42Z" style="fill:#fff"/></g><path d="M35.88,52.17a9.08,9.08,0,0,0,3.32,2.49,4.76,4.76,0,0,0,2.64.25c0.81-.19.38-0.37,0.25-0.47S41.87,54.25,41.6,54,39.69,52,38.47,51.75A5.25,5.25,0,0,0,35.88,52.17Z" style="fill:#fff"/><path d="M34.77,50.08a9.08,9.08,0,0,0,4.11.57,4.76,4.76,0,0,0,2.43-1.06c0.61-.56.15-0.51,0-0.53S41,49,40.66,48.92,38,48,36.83,48.46A5.25,5.25,0,0,0,34.77,50.08Z" style="fill:#f4f5f5"/><circle cx="26.71" cy="50.34" r="0.25" transform="translate(-20.26 18.07) rotate(-27.56)" style="fill:#016677"/><path d="M28.71,49.13a4.18,4.18,0,0,0,.74-0.66L29,48.33a8.06,8.06,0,0,0-.72.39,1.28,1.28,0,0,0-.37.48Z" style="fill:#fff"/><path d="M37,45.93a4.18,4.18,0,0,0,.74-0.66l-0.43-.14a8.06,8.06,0,0,0-.72.39,1.28,1.28,0,0,0-.37.48Z" style="fill:#fff"/><path d="M34.3,45.81a1.27,1.27,0,0,0,.42-0.68l-0.87.29-0.31.71Z" style="fill:#fff"/><path d="M38.07,43.36a1.27,1.27,0,0,0,.42-0.68l-0.54.13-0.31.5Z" style="fill:#fff"/><path d="M40.89,44.07c0.38-.27.61-0.51,0.32-0.59a1.37,1.37,0,0,0-.68.07L40.12,44l0.05,0.41Z" style="fill:#fff"/><path d="M31.63,50.34a1.24,1.24,0,0,1-.68.37A1.9,1.9,0,0,1,31.2,50c0.15-.11.46-0.4,0.49-0.24A2.55,2.55,0,0,1,31.63,50.34Z" style="fill:#fff"/><path d="M35.54,47.33C36,47,36.36,47,36.2,46.8a0.82,0.82,0,0,0-.64-0.17l-0.49.85Z" style="fill:#fff"/><path d="M42.41,35.64a1.83,1.83,0,0,0,.07-0.52l-0.27.09a3.78,3.78,0,0,0-.18.41,0.56,0.56,0,0,0,0,.32Z" style="fill:#fff"/><path d="M45.13,34.59A0.6,0.6,0,0,1,45,35a0.93,0.93,0,0,1-.19-0.38c0-.1.05-0.32,0.14-0.27A1.4,1.4,0,0,1,45.13,34.59Z" style="fill:#fff"/><path d="M43.28,38.2A1.16,1.16,0,0,0,42.86,38a0.21,0.21,0,0,0-.1.19,0.38,0.38,0,0,0-.12.24,0.29,0.29,0,0,0,.31.26A1.13,1.13,0,0,0,43.28,38.2Z" style="fill:#fff"/><path d="M42.69,40.5a0.78,0.78,0,0,0-.35-0.17,0.29,0.29,0,0,0-.12.2,0.52,0.52,0,0,0-.15.25,0.22,0.22,0,0,0,.24.26A1.56,1.56,0,0,0,42.69,40.5Z" style="fill:#fff"/><path d="M41.44,38.09a1.22,1.22,0,0,1-.43.56A0.65,0.65,0,0,1,41,38c0.19-.2.19-0.38,0.31-0.34A0.67,0.67,0,0,1,41.44,38.09Z" style="fill:#fff"/><path d="M43.91,36.4c0.07-.13.2-0.17,0.12-0.24s0-.41-0.17-0.16a1.38,1.38,0,0,0-.27.43c-0.06.16,0.16,0.18,0.16,0.18Z" style="fill:#fff"/><path d="M43.82,33.08c0.08-.26.26-0.41,0.09-0.44a0.57,0.57,0,0,0-.38.16l0.13,0.51Z" style="fill:#fff"/><path d="M39.33,40.32c0.47-.27.9-0.43,0.51-0.51a2.1,2.1,0,0,0-1.05.33s-0.56.62-.27,0.69A1.4,1.4,0,0,0,39.33,40.32Z" style="fill:#fff"/></svg>